<?xml version="1.0" encoding="utf-8"?>
<!-- Generator: Adobe Illustrator 25.2.0, SVG Export Plug-In . SVG Version: 6.00 Build 0)  -->
<svg version="1.1" id="Layer_1" xmlns="http://www.w3.org/2000/svg" xmlns:xlink="http://www.w3.org/1999/xlink" x="0px" y="0px"
	 viewBox="0 0 313.6 569.9" style="enable-background:new 0 0 313.6 569.9;" xml:space="preserve">
<style type="text/css">
	.st0{fill:#F5F5F5;}
	.st1{enable-background:new    ;}
	.st2{fill:#333333;}
	.st3{fill:#FFFFFF;stroke:#FCB82B;stroke-width:1.8;}
	.st4{fill:#FFFFFF;stroke:#FCB82B;stroke-width:1.5;}
	.st5{fill:none;stroke:#FCB82B;stroke-width:1.75;}
	.st6{fill:#FCB82B;}
	.st7{fill:none;stroke:#FCB813;stroke-width:1.8;}
	.st8{fill:#FFFFFF;}
	.st9{fill:#FFFFFF;stroke:#707070;stroke-width:1.8;}
	.st10{fill:#03ABBA;}
	.st11{fill:none;stroke:#03ABBA;stroke-width:1.5;stroke-miterlimit:10;}
	.st12{fill:none;stroke:#03ABBA;stroke-width:1.8;stroke-miterlimit:10;}
	.st13{fill:#FFFFFF;stroke:#FBB315;stroke-width:1.8;stroke-miterlimit:10;}
	.st14{fill:none;stroke:#FBB315;stroke-width:1.5;stroke-miterlimit:10;}
	.st15{fill:#FBB315;}
	.st16{fill:#FFFFFF;stroke:#1F2957;stroke-width:1.75;stroke-miterlimit:10;}
	.st17{fill:none;stroke:#1F2957;stroke-width:1.5;stroke-miterlimit:10;}
	.st18{fill:#1F2957;}
	.st19{fill:none;stroke:#1F2957;stroke-width:1.8;stroke-miterlimit:10;}
	.st20{fill:none;stroke:#FCB82B;stroke-width:1.2;stroke-miterlimit:10;}
	.st21{fill:none;stroke:#03ABBA;stroke-width:1.2;stroke-miterlimit:10;}
	.st22{fill:none;stroke:#1F2957;stroke-width:1.2;stroke-miterlimit:10;}
	.st23{fill:none;stroke:#FBB315;stroke-width:1.2;stroke-miterlimit:10;}
	.st24{fill:#FFFFFF;stroke:#03ABBA;stroke-width:1.75;stroke-miterlimit:10;}
	.st25{fill:#FFFFFF;stroke:#03ABBA;stroke-width:2.034;stroke-miterlimit:10;}
</style>
<g id="Group_1224" transform="translate(-30.4 -5040.435)">
	<g id="Group_1219">
		<path id="Rectangle_476" class="st0" d="M146,5065.5h156c2.8,0,5,2.2,5,5v46c0,2.8-2.2,5-5,5H146l0,0V5065.5L146,5065.5z"/>
		<g class="st1">
			<path class="st2" d="M173.8,5085v4.5h-1.5v-11.4h4.2c1.2,0,2.2,0.3,2.9,1c0.7,0.6,1.1,1.5,1.1,2.5c0,1.1-0.3,2-1,2.6
				c-0.7,0.6-1.7,0.9-3,0.9H173.8z M173.8,5083.8h2.7c0.8,0,1.4-0.2,1.8-0.6c0.4-0.4,0.6-0.9,0.6-1.6c0-0.7-0.2-1.2-0.6-1.6
				c-0.4-0.4-1-0.6-1.8-0.6h-2.8V5083.8z"/>
			<path class="st2" d="M183.8,5089.5h-1.4v-12h1.4V5089.5z"/>
			<path class="st2" d="M191.3,5089.5c-0.1-0.2-0.2-0.5-0.2-0.9c-0.7,0.7-1.5,1-2.4,1c-0.8,0-1.5-0.2-2.1-0.7
				c-0.5-0.5-0.8-1.1-0.8-1.8c0-0.9,0.3-1.6,1-2.1c0.7-0.5,1.6-0.7,2.8-0.7h1.4v-0.7c0-0.5-0.2-0.9-0.5-1.2s-0.7-0.4-1.3-0.4
				c-0.5,0-0.9,0.1-1.3,0.4c-0.3,0.3-0.5,0.6-0.5,0.9H186c0-0.4,0.1-0.8,0.4-1.2c0.3-0.4,0.7-0.7,1.2-0.9c0.5-0.2,1.1-0.3,1.7-0.3
				c1,0,1.7,0.2,2.3,0.7s0.8,1.2,0.9,2v3.9c0,0.8,0.1,1.4,0.3,1.9v0.1H191.3z M188.9,5088.4c0.5,0,0.9-0.1,1.3-0.4s0.7-0.5,0.9-0.9
				v-1.7h-1.1c-1.8,0-2.7,0.5-2.7,1.6c0,0.5,0.2,0.8,0.5,1.1C188,5088.2,188.4,5088.4,188.9,5088.4z"/>
			<path class="st2" d="M196.1,5081l0,1.1c0.6-0.8,1.5-1.2,2.5-1.2c1.8,0,2.7,1,2.7,3v5.6H200v-5.6c0-0.6-0.1-1.1-0.4-1.4
				s-0.7-0.4-1.3-0.4c-0.5,0-0.9,0.1-1.2,0.4s-0.6,0.6-0.8,1v6h-1.4v-8.5H196.1z"/>
			<path class="st2" d="M205,5081l0,1.1c0.6-0.8,1.5-1.2,2.5-1.2c1.8,0,2.7,1,2.7,3v5.6h-1.4v-5.6c0-0.6-0.1-1.1-0.4-1.4
				s-0.7-0.4-1.3-0.4c-0.5,0-0.9,0.1-1.2,0.4s-0.6,0.6-0.8,1v6h-1.4v-8.5H205z"/>
			<path class="st2" d="M212.4,5078.8c0-0.2,0.1-0.4,0.2-0.6s0.4-0.2,0.6-0.2s0.5,0.1,0.6,0.2s0.2,0.4,0.2,0.6s-0.1,0.4-0.2,0.6
				s-0.4,0.2-0.6,0.2s-0.5-0.1-0.6-0.2S212.4,5079,212.4,5078.8z M214,5089.5h-1.4v-8.5h1.4V5089.5z"/>
			<path class="st2" d="M217.7,5081l0,1.1c0.6-0.8,1.5-1.2,2.5-1.2c1.8,0,2.7,1,2.7,3v5.6h-1.4v-5.6c0-0.6-0.1-1.1-0.4-1.4
				s-0.7-0.4-1.3-0.4c-0.5,0-0.9,0.1-1.2,0.4s-0.6,0.6-0.8,1v6h-1.4v-8.5H217.7z"/>
			<path class="st2" d="M224.8,5085.2c0-1.3,0.3-2.4,0.9-3.1s1.4-1.2,2.4-1.2c1,0,1.8,0.4,2.4,1.1l0.1-0.9h1.3v8.2
				c0,1.1-0.3,2-1,2.6s-1.5,0.9-2.6,0.9c-0.6,0-1.2-0.1-1.8-0.4s-1-0.6-1.3-1.1l0.8-0.9c0.6,0.8,1.4,1.1,2.3,1.1
				c0.7,0,1.3-0.2,1.6-0.6s0.6-1,0.6-1.7v-0.7c-0.6,0.7-1.4,1-2.4,1c-1,0-1.8-0.4-2.4-1.2S224.8,5086.5,224.8,5085.2z M226.2,5085.3
				c0,1,0.2,1.7,0.6,2.2s0.9,0.8,1.6,0.8c0.9,0,1.6-0.4,2-1.2v-3.9c-0.4-0.8-1.1-1.2-2-1.2c-0.7,0-1.3,0.3-1.6,0.8
				S226.2,5084.3,226.2,5085.3z"/>
			<path class="st2" d="M243.3,5089.5c-0.1-0.2-0.2-0.5-0.2-0.9c-0.7,0.7-1.5,1-2.4,1c-0.8,0-1.5-0.2-2.1-0.7s-0.8-1.1-0.8-1.8
				c0-0.9,0.3-1.6,1-2.1s1.6-0.7,2.8-0.7h1.4v-0.7c0-0.5-0.2-0.9-0.5-1.2s-0.7-0.4-1.3-0.4c-0.5,0-0.9,0.1-1.3,0.4s-0.5,0.6-0.5,0.9
				H238c0-0.4,0.1-0.8,0.4-1.2s0.7-0.7,1.2-0.9s1.1-0.3,1.7-0.3c1,0,1.7,0.2,2.3,0.7s0.8,1.2,0.9,2v3.9c0,0.8,0.1,1.4,0.3,1.9v0.1
				H243.3z M240.9,5088.4c0.5,0,0.9-0.1,1.3-0.4s0.7-0.5,0.9-0.9v-1.7h-1.1c-1.8,0-2.7,0.5-2.7,1.6c0,0.5,0.2,0.8,0.5,1.1
				S240.4,5088.4,240.9,5088.4z"/>
			<path class="st2" d="M248.1,5081l0,1.1c0.6-0.8,1.5-1.2,2.5-1.2c1.8,0,2.7,1,2.7,3v5.6H252v-5.6c0-0.6-0.1-1.1-0.4-1.4
				s-0.7-0.4-1.3-0.4c-0.5,0-0.9,0.1-1.2,0.4s-0.6,0.6-0.8,1v6h-1.4v-8.5H248.1z"/>
			<path class="st2" d="M255.3,5085.2c0-1.3,0.3-2.3,0.9-3.1s1.4-1.2,2.4-1.2c1,0,1.8,0.3,2.4,1v-4.4h1.4v12h-1.3l-0.1-0.9
				c-0.6,0.7-1.4,1.1-2.4,1.1c-1,0-1.8-0.4-2.4-1.2s-0.9-1.8-0.9-3.1V5085.2z M256.7,5085.3c0,1,0.2,1.7,0.6,2.2s0.9,0.8,1.6,0.8
				c0.9,0,1.6-0.4,2-1.2v-3.9c-0.4-0.8-1.1-1.2-2-1.2c-0.7,0-1.3,0.3-1.7,0.8S256.7,5084.3,256.7,5085.3z"/>
		</g>
		<g class="st1">
			<path class="st2" d="M180.5,5105.9c-0.1,1.2-0.6,2.1-1.3,2.8s-1.7,1-2.9,1c-0.8,0-1.6-0.2-2.2-0.6s-1.1-1-1.5-1.8
				c-0.4-0.8-0.5-1.7-0.5-2.7v-1.5c0-1,0.2-1.9,0.5-2.7c0.4-0.8,0.9-1.4,1.5-1.8s1.4-0.6,2.3-0.6c1.2,0,2.2,0.3,2.9,1
				c0.7,0.7,1.1,1.6,1.2,2.7h-1c-0.2-1.9-1.3-2.9-3.1-2.9c-1,0-1.9,0.4-2.5,1.2c-0.6,0.8-0.9,1.8-0.9,3.2v1.4c0,1.3,0.3,2.4,0.9,3.1
				c0.6,0.8,1.4,1.2,2.4,1.2c1,0,1.8-0.2,2.3-0.7c0.5-0.5,0.8-1.2,0.9-2.2H180.5z"/>
			<path class="st2" d="M182.1,5105.1c0-0.8,0.2-1.5,0.5-2.2c0.3-0.7,0.8-1.2,1.3-1.5c0.6-0.4,1.2-0.5,2-0.5c1.1,0,2,0.4,2.7,1.2
				c0.7,0.8,1,1.8,1,3.1v0.2c0,0.8-0.2,1.6-0.5,2.2s-0.8,1.2-1.3,1.5c-0.6,0.4-1.2,0.5-2,0.5c-1.1,0-2-0.4-2.7-1.2
				c-0.7-0.8-1.1-1.8-1.1-3.1V5105.1z M183,5105.4c0,1,0.3,1.8,0.8,2.5s1.2,1,2.1,1c0.8,0,1.5-0.3,2.1-1c0.5-0.6,0.8-1.5,0.8-2.6
				v-0.2c0-0.6-0.1-1.2-0.4-1.8c-0.2-0.5-0.6-1-1-1.2c-0.4-0.3-0.9-0.4-1.5-0.4c-0.8,0-1.5,0.3-2,1c-0.5,0.7-0.8,1.5-0.8,2.6V5105.4
				z"/>
			<path class="st2" d="M192.5,5101l0,1.4c0.3-0.5,0.7-0.9,1.2-1.2s1-0.4,1.6-0.4c0.9,0,1.6,0.3,2,0.8s0.7,1.3,0.7,2.3v5.5H197v-5.6
				c0-0.8-0.2-1.3-0.5-1.7s-0.8-0.6-1.5-0.6c-0.6,0-1.1,0.2-1.5,0.5s-0.8,0.9-1,1.5v5.8h-0.9v-8.5H192.5z"/>
			<path class="st2" d="M205.4,5107.3c0-0.5-0.2-0.8-0.6-1.1s-0.9-0.5-1.7-0.7s-1.3-0.3-1.7-0.5s-0.7-0.5-0.9-0.8s-0.3-0.7-0.3-1.1
				c0-0.7,0.3-1.2,0.8-1.7s1.3-0.7,2.1-0.7c0.9,0,1.7,0.2,2.3,0.7s0.9,1.1,0.9,1.8h-0.9c0-0.5-0.2-0.9-0.6-1.2s-0.9-0.5-1.6-0.5
				c-0.6,0-1.1,0.1-1.5,0.4s-0.6,0.6-0.6,1.1c0,0.4,0.2,0.7,0.5,1s0.9,0.4,1.7,0.6s1.4,0.4,1.8,0.6s0.7,0.5,0.9,0.8s0.3,0.7,0.3,1.1
				c0,0.7-0.3,1.3-0.9,1.7s-1.3,0.6-2.3,0.6c-1,0-1.8-0.2-2.4-0.7s-0.9-1.1-0.9-1.8h0.9c0,0.5,0.3,1,0.7,1.3s1,0.5,1.7,0.5
				c0.7,0,1.2-0.1,1.6-0.4S205.4,5107.8,205.4,5107.3z"/>
			<path class="st2" d="M213.9,5108.4c-0.6,0.8-1.5,1.2-2.7,1.2c-0.9,0-1.6-0.3-2.1-0.8s-0.7-1.3-0.7-2.3v-5.5h0.9v5.4
				c0,1.6,0.7,2.4,2,2.4c1.4,0,2.2-0.6,2.6-1.7v-6.1h0.9v8.5h-0.9L213.9,5108.4z"/>
			<path class="st2" d="M218.3,5109.5h-0.9v-12h0.9V5109.5z"/>
			<path class="st2" d="M222.3,5098.8v2.2h1.8v0.8h-1.8v5.6c0,0.5,0.1,0.8,0.3,1s0.5,0.3,0.8,0.3c0.2,0,0.4,0,0.8-0.1l0,0.8
				c-0.2,0.1-0.6,0.1-1,0.1c-0.6,0-1.1-0.2-1.4-0.6s-0.4-0.9-0.4-1.6v-5.6h-1.6v-0.8h1.6v-2.2H222.3z"/>
			<path class="st2" d="M225.9,5098.6c0-0.2,0.1-0.3,0.2-0.4c0.1-0.1,0.3-0.2,0.5-0.2s0.4,0.1,0.5,0.2c0.1,0.1,0.2,0.3,0.2,0.4
				s-0.1,0.3-0.2,0.4s-0.3,0.2-0.5,0.2s-0.4-0.1-0.5-0.2S225.9,5098.7,225.9,5098.6z M227,5109.5h-0.9v-8.5h0.9V5109.5z"/>
			<path class="st2" d="M230.5,5101l0,1.4c0.3-0.5,0.7-0.9,1.2-1.2s1-0.4,1.6-0.4c0.9,0,1.6,0.3,2,0.8s0.7,1.3,0.7,2.3v5.5H235v-5.6
				c0-0.8-0.2-1.3-0.5-1.7s-0.8-0.6-1.5-0.6c-0.6,0-1.1,0.2-1.5,0.5s-0.8,0.9-1,1.5v5.8h-0.9v-8.5H230.5z"/>
			<path class="st2" d="M238,5105.2c0-1.3,0.3-2.4,0.9-3.1s1.4-1.2,2.4-1.2c1.2,0,2,0.5,2.6,1.4l0-1.2h0.9v8.3c0,1.1-0.3,2-0.9,2.6
				s-1.4,1-2.5,1c-0.6,0-1.1-0.1-1.7-0.4s-1-0.6-1.3-1.1l0.5-0.6c0.7,0.8,1.4,1.2,2.4,1.2c0.8,0,1.4-0.2,1.8-0.7s0.7-1.1,0.7-1.9
				v-1.1c-0.6,0.8-1.5,1.2-2.6,1.2c-1,0-1.8-0.4-2.4-1.2s-0.9-1.8-0.9-3.2V5105.2z M238.9,5105.3c0,1.1,0.2,1.9,0.6,2.6
				s1,0.9,1.8,0.9c1.2,0,2-0.5,2.4-1.5v-3.9c-0.2-0.5-0.5-1-0.9-1.2s-0.9-0.4-1.5-0.4c-0.8,0-1.4,0.3-1.8,0.9
				S238.9,5104.1,238.9,5105.3z"/>
		</g>
		<path id="Path_3791" class="st3" d="M56.6,5073.3v40.4c0,4.1,2.2,8,5.8,10l35,20.2c3.6,2.1,8,2.1,11.6,0l35-20.2
			c3.6-2.1,5.8-5.9,5.8-10v-40.4c0-4.1-2.2-8-5.8-10l-35-20.2c-3.6-2.1-8-2.1-11.6,0l-35,20.2C58.8,5065.3,56.6,5069.1,56.6,5073.3z
			"/>
		<g id="Group_1200" transform="translate(-8 2)">
			<path id="Path_3891" class="st4" d="M123.5,5095.2c2.7-5.2,4.1-11.1,3.9-16.9c-1.1-14.4-15.6-15.3-19.4-15.3l-5.8-0.4l2.3,2.9
				l-10.6,10c0,0,3,3.8,4,5c1.1,1.4,1.4,1.5,1.4,1.5c1.3-0.8,2.6-1.6,3.9-2.3c4.1-2.2,6.7-2,8-1.5c0.6,0.2,1,0.9,0.7,1.6
				c0,0.1-0.1,0.2-0.2,0.3c-1,1.2-2,2.4-3.1,3.5c-6.8,5.1-7.7,9.3-7.7,9.3c-2,5.1,1,11.9,1,11.9c-0.1,0.7-5.7,5-5.7,5v7.2h32.7
				l0.1-7.6L123.5,5095.2z"/>
			<line id="Line_192" class="st5" x1="128.8" y1="5109.2" x2="96.8" y2="5109.2"/>
			<path id="Path_3892" class="st6" d="M106.8,5070.4l-1.9,1c-0.4,0.2-0.9,0-1.1-0.4c-0.2-0.4,0-0.9,0.4-1.1c0,0,0,0,0,0l1.9-1
				c0.4-0.2,0.9,0,1.1,0.4C107.3,5069.7,107.2,5070.2,106.8,5070.4L106.8,5070.4z"/>
		</g>
		<g id="Ellipse_186" transform="translate(139.365 5083.188)">
			<ellipse class="st6" cx="10.4" cy="10.4" rx="10.4" ry="10.4"/>
			<ellipse class="st7" cx="10.4" cy="10.4" rx="9.5" ry="9.5"/>
		</g>
		<g class="st1">
			<path class="st8" d="M151,5098.5h-1.7v-8l-2.4,0.8v-1.4l3.9-1.4h0.2V5098.5z"/>
		</g>
	</g>
	<g id="Group_1217" transform="translate(0 -12)">
		<path id="Rectangle_477" class="st0" d="M146,5261.5h156c2.8,0,5,2.2,5,5v46c0,2.8-2.2,5-5,5H146l0,0V5261.5L146,5261.5z"/>
		<path id="Path_3785" class="st9" d="M57.2,5269.3v40.4c0,4.1,2.2,7.9,5.7,10l34.6,20.2c3.5,2.1,7.9,2.1,11.4,0l34.6-20.2
			c3.6-2.1,5.7-5.9,5.7-10v-40.4c0-4.1-2.2-7.9-5.7-10l-34.6-20.2c-3.5-2.1-7.9-2.1-11.4,0l-34.6,20.2
			C59.4,5261.3,57.2,5265.1,57.2,5269.3z"/>
		<g id="Group_1198" transform="translate(-8 -18)">
			<path id="Path_3786" class="st10" d="M100.3,5307.7v-1.7l6.1-2.9v1.9l-4,1.9l4,1.9v1.9L100.3,5307.7z"/>
			<path id="Path_3787" class="st10" d="M112.9,5301.7h1.8l-5.3,11.6h-1.8L112.9,5301.7z"/>
			<path id="Path_3788" class="st10" d="M122.1,5306v1.7l-6.1,2.9v-1.9l4-1.9l-4-1.9v-1.9L122.1,5306z"/>
			<path id="Path_3789" class="st11" d="M132,5305.7l4.4-1.8c-0.3-1.8-0.8-3.6-1.5-5.3c0-0.1-0.1-0.2-0.1-0.2s0-0.2-0.1-0.2
				c-0.7-1.7-1.6-3.3-2.6-4.9l-4.1,1.6c-0.9-1.3-2-2.4-3.2-3.4l1.8-4.2c-1.5-1.1-3.1-2-4.8-2.7l-0.2-0.1l-0.2-0.1
				c-1.7-0.7-3.5-1.2-5.3-1.6l-1.6,3.8c-1.9-0.3-3.8-0.3-5.6-0.1l-1.8-4.3c-1.8,0.3-3.6,0.8-5.3,1.5l-0.2,0.1l-0.3,0.1
				c-1.7,0.7-3.3,1.6-4.8,2.6l1.8,4.4c-1.3,1-2.4,2.2-3.4,3.5l-4.2-1.8c-1.1,1.5-2,3.1-2.7,4.8c0,0.1,0,0.2-0.1,0.2
				c-0.1,0.1-0.1,0.2-0.1,0.2c-0.7,1.7-1.2,3.5-1.6,5.3l4.4,1.9c-0.2,1.6-0.1,3.2,0.1,4.9l-4.3,1.7c0.3,1.8,0.8,3.6,1.5,5.3
				c0,0.1,0.1,0.2,0.1,0.2s0,0.2,0.1,0.3c0.7,1.7,1.6,3.3,2.6,4.9l4.7-1.9c1,1.2,2.2,2.3,3.4,3.2l-1.9,4.5c1.5,1.1,3.1,2,4.8,2.7
				l0.2,0.1l0.2,0.1c1.7,0.7,3.5,1.2,5.3,1.6l2.1-4.8c1.2,0.1,2.5,0.1,3.7,0l1.8,4.4c1.8-0.3,3.6-0.8,5.3-1.5l0.2-0.1l0.2-0.1
				c1.7-0.7,3.3-1.6,4.8-2.7l-1.7-4.3c1.2-0.9,2.3-1.9,3.2-3.1l4.5,1.9c1.1-1.5,2-3.1,2.7-4.8c0-0.1,0-0.2,0.1-0.2
				c0.1-0.1,0.1-0.1,0.1-0.2c0.7-1.7,1.3-3.4,1.6-5.2l-4.2-1.8C132,5308.7,132.1,5307.2,132,5305.7z M116.6,5320.9
				c-7.6,3-16.2-0.6-19.2-8.2c-3-7.6,0.6-16.2,8.2-19.2c7.6-3,16.1,0.6,19.2,8.2l0,0C127.8,5309.3,124.1,5317.9,116.6,5320.9
				L116.6,5320.9z"/>
		</g>
		<path id="Path_3790" class="st12" d="M57.2,5269.3v40.4c0,4.1,2.2,7.9,5.7,10l34.6,20.2c3.5,2.1,7.9,2.1,11.4,0l34.6-20.2
			c3.6-2.1,5.7-5.9,5.7-10v-40.4c0-4.1-2.2-7.9-5.7-10l-34.6-20.2c-3.5-2.1-7.9-2.1-11.4,0l-34.6,20.2
			C59.4,5261.3,57.2,5265.1,57.2,5269.3z"/>
		<g id="Path_3909" transform="translate(136.945 5277.895)">
			<path class="st10" d="M11.6,22.2c-5.9,0-10.7-4.8-10.7-10.7S5.7,0.9,11.6,0.9s10.7,4.8,10.7,10.7S17.5,22.2,11.6,22.2z"/>
			<path class="st10" d="M11.6,1.8c-5.4,0-9.8,4.4-9.8,9.8s4.4,9.8,9.8,9.8s9.8-4.4,9.8-9.8S17,1.8,11.6,1.8 M11.6,0
				C18,0,23.1,5.2,23.1,11.6S18,23.1,11.6,23.1S0,18,0,11.6S5.2,0,11.6,0z"/>
		</g>
		<g class="st1">
			<path class="st8" d="M146.9,5288.5h1c0.5,0,0.9-0.1,1.2-0.4s0.4-0.6,0.4-1.1c0-0.5-0.1-0.8-0.4-1.1c-0.2-0.3-0.6-0.4-1.1-0.4
				c-0.4,0-0.8,0.1-1.1,0.4c-0.3,0.3-0.4,0.6-0.4,1h-1.7c0-0.5,0.1-1,0.4-1.4s0.6-0.7,1.1-1c0.5-0.2,1-0.4,1.6-0.4
				c1,0,1.8,0.2,2.3,0.7c0.6,0.5,0.9,1.2,0.9,2.1c0,0.4-0.1,0.9-0.4,1.3c-0.3,0.4-0.7,0.7-1.1,0.9c0.5,0.2,1,0.5,1.2,0.9
				s0.4,0.9,0.4,1.4c0,0.9-0.3,1.6-0.9,2.1s-1.4,0.8-2.4,0.8c-1,0-1.7-0.3-2.4-0.8s-0.9-1.2-0.9-2h1.7c0,0.4,0.1,0.8,0.4,1.1
				s0.7,0.4,1.2,0.4c0.5,0,0.9-0.1,1.2-0.4s0.4-0.7,0.4-1.2c0-0.5-0.2-0.9-0.5-1.2s-0.8-0.4-1.4-0.4h-1V5288.5z"/>
		</g>
		<g class="st1">
			<path class="st2" d="M172.6,5295.5v-11.4h3.2c0.9,0,1.8,0.2,2.5,0.6c0.7,0.4,1.3,1,1.7,1.8s0.6,1.7,0.6,2.7v1
				c0,1-0.2,1.9-0.6,2.7c-0.4,0.8-1,1.4-1.7,1.8c-0.7,0.4-1.6,0.6-2.6,0.6H172.6z M173.6,5284.9v9.8h2.2c1.2,0,2.2-0.4,2.9-1.2
				c0.7-0.8,1.1-1.9,1.1-3.2v-1c0-1.3-0.4-2.4-1.1-3.1c-0.7-0.8-1.7-1.2-2.8-1.2H173.6z"/>
			<path class="st2" d="M186.2,5295.6c-0.7,0-1.4-0.2-1.9-0.5c-0.6-0.4-1-0.8-1.4-1.5c-0.3-0.6-0.5-1.3-0.5-2.1v-0.3
				c0-0.8,0.2-1.5,0.5-2.2c0.3-0.7,0.8-1.2,1.3-1.5s1.2-0.6,1.8-0.6c1,0,1.8,0.4,2.4,1.1s0.9,1.7,0.9,2.9v0.5h-6v0.2
				c0,1,0.3,1.8,0.8,2.4c0.5,0.6,1.2,1,2.1,1c0.5,0,0.9-0.1,1.3-0.3s0.7-0.5,1-0.9l0.6,0.4C188.5,5295.1,187.5,5295.6,186.2,5295.6z
				 M186,5287.7c-0.7,0-1.3,0.3-1.8,0.8c-0.5,0.5-0.8,1.2-0.9,2.1h5.1v-0.1c0-0.8-0.3-1.5-0.7-2S186.7,5287.7,186,5287.7z"/>
			<path class="st2" d="M193.7,5294.2l2.6-7.2h1l-3.2,8.5h-0.8l-3.2-8.5h1L193.7,5294.2z"/>
			<path class="st2" d="M201.9,5295.6c-0.7,0-1.4-0.2-1.9-0.5c-0.6-0.4-1-0.8-1.4-1.5c-0.3-0.6-0.5-1.3-0.5-2.1v-0.3
				c0-0.8,0.2-1.5,0.5-2.2c0.3-0.7,0.8-1.2,1.3-1.5s1.2-0.6,1.8-0.6c1,0,1.8,0.4,2.4,1.1s0.9,1.7,0.9,2.9v0.5h-6v0.2
				c0,1,0.3,1.8,0.8,2.4c0.5,0.6,1.2,1,2.1,1c0.5,0,0.9-0.1,1.3-0.3s0.7-0.5,1-0.9l0.6,0.4C204.2,5295.1,203.2,5295.6,201.9,5295.6z
				 M201.7,5287.7c-0.7,0-1.3,0.3-1.8,0.8c-0.5,0.5-0.8,1.2-0.9,2.1h5.1v-0.1c0-0.8-0.3-1.5-0.7-2S202.4,5287.7,201.7,5287.7z"/>
			<path class="st2" d="M207.9,5295.5H207v-12h0.9V5295.5z"/>
			<path class="st2" d="M210,5291.1c0-0.8,0.2-1.5,0.5-2.2c0.3-0.7,0.8-1.2,1.3-1.5c0.6-0.4,1.2-0.5,2-0.5c1.1,0,2,0.4,2.7,1.2
				c0.7,0.8,1,1.8,1,3.1v0.2c0,0.8-0.2,1.6-0.5,2.2c-0.3,0.7-0.8,1.2-1.3,1.5c-0.6,0.4-1.2,0.5-2,0.5c-1.1,0-2-0.4-2.7-1.2
				c-0.7-0.8-1.1-1.8-1.1-3.1V5291.1z M210.9,5291.4c0,1,0.3,1.8,0.8,2.5s1.2,1,2.1,1c0.8,0,1.5-0.3,2.1-1s0.8-1.5,0.8-2.6v-0.2
				c0-0.6-0.1-1.2-0.4-1.8c-0.2-0.5-0.6-1-1-1.2c-0.4-0.3-0.9-0.4-1.5-0.4c-0.8,0-1.5,0.3-2,1c-0.5,0.7-0.8,1.5-0.8,2.6V5291.4z"/>
			<path class="st2" d="M226.2,5291.3c0,1.3-0.3,2.4-0.9,3.1c-0.6,0.8-1.4,1.2-2.3,1.2c-1.2,0-2-0.4-2.7-1.2v4.3h-0.9V5287h0.9
				l0,1.2c0.6-0.9,1.5-1.4,2.6-1.4c1,0,1.8,0.4,2.4,1.1c0.6,0.8,0.9,1.8,0.9,3.2V5291.3z M225.3,5291.2c0-1.1-0.2-1.9-0.7-2.6
				c-0.4-0.6-1.1-0.9-1.9-0.9c-0.6,0-1.1,0.1-1.5,0.4c-0.4,0.3-0.7,0.7-0.9,1.2v4.1c0.2,0.5,0.5,0.9,1,1.1c0.4,0.3,0.9,0.4,1.5,0.4
				c0.8,0,1.4-0.3,1.8-0.9C225.1,5293.3,225.3,5292.4,225.3,5291.2z"/>
			<path class="st2" d="M229.2,5287l0,1.4c0.3-0.5,0.7-0.9,1.2-1.1s1-0.4,1.6-0.4c1.3,0,2.2,0.5,2.5,1.6c0.3-0.5,0.7-0.9,1.2-1.2
				c0.5-0.3,1.1-0.4,1.7-0.4c1.8,0,2.7,1,2.8,3v5.6h-0.9v-5.6c0-0.8-0.2-1.3-0.5-1.7s-0.8-0.5-1.6-0.5c-0.7,0-1.2,0.2-1.7,0.7
				c-0.5,0.4-0.7,0.9-0.8,1.6v5.6h-0.9v-5.6c0-0.7-0.2-1.3-0.5-1.6s-0.9-0.5-1.6-0.5c-0.6,0-1.1,0.2-1.5,0.5s-0.7,0.8-0.9,1.5v5.8
				h-0.9v-8.5H229.2z"/>
			<path class="st2" d="M245.8,5295.6c-0.7,0-1.4-0.2-1.9-0.5c-0.6-0.4-1-0.8-1.4-1.5c-0.3-0.6-0.5-1.3-0.5-2.1v-0.3
				c0-0.8,0.2-1.5,0.5-2.2c0.3-0.7,0.8-1.2,1.3-1.5s1.2-0.6,1.8-0.6c1,0,1.8,0.4,2.4,1.1s0.9,1.7,0.9,2.9v0.5h-6v0.2
				c0,1,0.3,1.8,0.8,2.4c0.5,0.6,1.2,1,2.1,1c0.5,0,0.9-0.1,1.3-0.3s0.7-0.5,1-0.9l0.6,0.4C248.1,5295.1,247.1,5295.6,245.8,5295.6z
				 M245.6,5287.7c-0.7,0-1.3,0.3-1.8,0.8c-0.5,0.5-0.8,1.2-0.9,2.1h5.1v-0.1c0-0.8-0.3-1.5-0.7-2S246.3,5287.7,245.6,5287.7z"/>
			<path class="st2" d="M251.7,5287l0,1.4c0.3-0.5,0.7-0.9,1.2-1.2c0.5-0.3,1-0.4,1.6-0.4c0.9,0,1.6,0.3,2,0.8
				c0.4,0.5,0.7,1.3,0.7,2.3v5.5h-0.9v-5.6c0-0.8-0.2-1.3-0.5-1.7c-0.3-0.4-0.8-0.6-1.5-0.6c-0.6,0-1.1,0.2-1.5,0.5s-0.8,0.9-1,1.5
				v5.8h-0.9v-8.5H251.7z"/>
			<path class="st2" d="M261,5284.8v2.2h1.8v0.8H261v5.6c0,0.5,0.1,0.8,0.3,1c0.2,0.2,0.5,0.3,0.8,0.3c0.2,0,0.4,0,0.8-0.1l0,0.8
				c-0.2,0.1-0.6,0.1-1,0.1c-0.6,0-1.1-0.2-1.4-0.6c-0.3-0.4-0.4-0.9-0.4-1.6v-5.6h-1.6v-0.8h1.6v-2.2H261z"/>
		</g>
	</g>
	<g id="Group_1216" transform="translate(0 -19)">
		<path id="Rectangle_479" class="st0" d="M71,5359.5h156l0,0v56l0,0H71c-2.8,0-5-2.2-5-5v-46C66,5361.7,68.2,5359.5,71,5359.5z"/>
		<path id="Path_3801" class="st13" d="M223.5,5367.3v40.4c0,4.1,2.2,7.9,5.7,10l34.5,20.2c3.5,2.1,7.9,2.1,11.4,0l34.5-20.2
			c3.6-2.1,5.7-5.9,5.7-10v-40.4c0-4.1-2.2-7.9-5.7-10l-34.5-20.2c-3.5-2.1-7.9-2.1-11.4,0l-34.5,20.2
			C225.7,5359.3,223.5,5363.1,223.5,5367.3z"/>
		<g id="Group_1197" transform="translate(-8 -28)">
			<path id="Path_3802" class="st14" d="M267.5,5431.8l-9.9,8v-8.8l9.2-10.8"/>
			<path id="Path_3803" class="st14" d="M290.2,5420.2l9.2,10.8v8.8l-9.9-8"/>
			<path id="Path_3804" class="st14" d="M288.7,5437.2c1.1-5.3,1.7-10.8,1.6-16.2c0-17.6-5.3-31.9-11.8-31.9s-11.8,14.3-11.8,31.9
				c0,5.5,0.5,10.9,1.6,16.2H288.7z"/>
			<line id="Line_137" class="st14" x1="278.5" y1="5380.7" x2="278.5" y2="5388.7"/>
			<line id="Line_138" class="st14" x1="273.4" y1="5439.2" x2="273.4" y2="5446.5"/>
			<line id="Line_139" class="st14" x1="283.5" y1="5440.1" x2="283.5" y2="5450.3"/>
			<line id="Line_140" class="st14" x1="278.9" y1="5416.5" x2="278.9" y2="5442.9"/>
		</g>
		<g id="Path_3908" transform="translate(212 5375.249)">
			<path class="st15" d="M11.6,22.2c-5.9,0-10.7-4.8-10.7-10.7S5.7,0.9,11.6,0.9s10.7,4.8,10.7,10.7S17.5,22.2,11.6,22.2z"/>
			<path class="st15" d="M11.6,1.8c-5.4,0-9.8,4.4-9.8,9.8s4.4,9.8,9.8,9.8s9.8-4.4,9.8-9.8S17,1.8,11.6,1.8 M11.6,0
				C18,0,23.1,5.2,23.1,11.6S18,23.1,11.6,23.1S0,18,0,11.6S5.2,0,11.6,0z"/>
		</g>
		<g class="st1">
			<path class="st8" d="M225,5387.8h1.2v1.3H225v2.2h-1.7v-2.2H219l0-1l4.3-6.7h1.7V5387.8z M220.7,5387.8h2.6v-4.2l-0.1,0.2
				L220.7,5387.8z"/>
		</g>
		<g class="st1">
			<path class="st2" d="M115.9,5394.5v-11.4h3.2c0.9,0,1.8,0.2,2.5,0.6c0.7,0.4,1.3,1,1.7,1.8s0.6,1.7,0.6,2.7v1
				c0,1-0.2,1.9-0.6,2.7c-0.4,0.8-1,1.4-1.7,1.8c-0.7,0.4-1.6,0.6-2.6,0.6H115.9z M116.9,5383.9v9.8h2.2c1.2,0,2.2-0.4,2.9-1.2
				c0.7-0.8,1.1-1.9,1.1-3.2v-1c0-1.3-0.4-2.4-1.1-3.1c-0.7-0.8-1.7-1.2-2.8-1.2H116.9z"/>
			<path class="st2" d="M129.4,5394.6c-0.7,0-1.4-0.2-1.9-0.5c-0.6-0.4-1-0.8-1.4-1.5c-0.3-0.6-0.5-1.3-0.5-2.1v-0.3
				c0-0.8,0.2-1.5,0.5-2.2c0.3-0.7,0.8-1.2,1.3-1.5s1.2-0.6,1.8-0.6c1,0,1.8,0.4,2.4,1.1s0.9,1.7,0.9,2.9v0.5h-6v0.2
				c0,1,0.3,1.8,0.8,2.4c0.5,0.6,1.2,1,2.1,1c0.5,0,0.9-0.1,1.3-0.3s0.7-0.5,1-0.9l0.6,0.4C131.7,5394.1,130.7,5394.6,129.4,5394.6z
				 M129.3,5386.7c-0.7,0-1.3,0.3-1.8,0.8c-0.5,0.5-0.8,1.2-0.9,2.1h5.1v-0.1c0-0.8-0.3-1.5-0.7-2S130,5386.7,129.3,5386.7z"/>
			<path class="st2" d="M141.2,5390.3c0,1.3-0.3,2.4-0.9,3.1c-0.6,0.8-1.4,1.2-2.3,1.2c-1.2,0-2-0.4-2.7-1.2v4.3h-0.9V5386h0.9
				l0,1.2c0.6-0.9,1.5-1.4,2.6-1.4c1,0,1.8,0.4,2.4,1.1c0.6,0.8,0.9,1.8,0.9,3.2V5390.3z M140.3,5390.2c0-1.1-0.2-1.9-0.7-2.6
				c-0.4-0.6-1.1-0.9-1.9-0.9c-0.6,0-1.1,0.1-1.5,0.4c-0.4,0.3-0.7,0.7-0.9,1.2v4.1c0.2,0.5,0.5,0.9,1,1.1c0.4,0.3,0.9,0.4,1.5,0.4
				c0.8,0,1.4-0.3,1.8-0.9C140.1,5392.3,140.3,5391.4,140.3,5390.2z"/>
			<path class="st2" d="M144.3,5394.5h-0.9v-12h0.9V5394.5z"/>
			<path class="st2" d="M146.4,5390.1c0-0.8,0.2-1.5,0.5-2.2c0.3-0.7,0.8-1.2,1.3-1.5c0.6-0.4,1.2-0.5,2-0.5c1.1,0,2,0.4,2.7,1.2
				c0.7,0.8,1,1.8,1,3.1v0.2c0,0.8-0.2,1.6-0.5,2.2c-0.3,0.7-0.8,1.2-1.3,1.5c-0.6,0.4-1.2,0.5-2,0.5c-1.1,0-2-0.4-2.7-1.2
				c-0.7-0.8-1.1-1.8-1.1-3.1V5390.1z M147.3,5390.4c0,1,0.3,1.8,0.8,2.5s1.2,1,2.1,1c0.8,0,1.5-0.3,2.1-1s0.8-1.5,0.8-2.6v-0.2
				c0-0.6-0.1-1.2-0.4-1.8c-0.2-0.5-0.6-1-1-1.2c-0.4-0.3-0.9-0.4-1.5-0.4c-0.8,0-1.5,0.3-2,1c-0.5,0.7-0.8,1.5-0.8,2.6V5390.4z"/>
			<path class="st2" d="M158.4,5393.1l2.5-7.1h1l-3.6,9.9l-0.2,0.4c-0.5,1-1.2,1.5-2.1,1.5c-0.2,0-0.5,0-0.7-0.1l0-0.8l0.5,0
				c0.5,0,0.8-0.1,1.1-0.3c0.3-0.2,0.5-0.6,0.7-1.2l0.4-1.1l-3.2-8.4h1L158.4,5393.1z"/>
			<path class="st2" d="M164.2,5386l0,1.4c0.3-0.5,0.7-0.9,1.2-1.1s1-0.4,1.6-0.4c1.3,0,2.2,0.5,2.5,1.6c0.3-0.5,0.7-0.9,1.2-1.2
				c0.5-0.3,1.1-0.4,1.7-0.4c1.8,0,2.7,1,2.8,3v5.6h-0.9v-5.6c0-0.8-0.2-1.3-0.5-1.7s-0.8-0.5-1.6-0.5c-0.7,0-1.2,0.2-1.7,0.7
				c-0.5,0.4-0.7,0.9-0.8,1.6v5.6h-0.9v-5.6c0-0.7-0.2-1.3-0.5-1.6s-0.9-0.5-1.6-0.5c-0.6,0-1.1,0.2-1.5,0.5s-0.7,0.8-0.9,1.5v5.8
				h-0.9v-8.5H164.2z"/>
			<path class="st2" d="M180.8,5394.6c-0.7,0-1.4-0.2-1.9-0.5c-0.6-0.4-1-0.8-1.4-1.5c-0.3-0.6-0.5-1.3-0.5-2.1v-0.3
				c0-0.8,0.2-1.5,0.5-2.2c0.3-0.7,0.8-1.2,1.3-1.5s1.2-0.6,1.8-0.6c1,0,1.8,0.4,2.4,1.1s0.9,1.7,0.9,2.9v0.5h-6v0.2
				c0,1,0.3,1.8,0.8,2.4c0.5,0.6,1.2,1,2.1,1c0.5,0,0.9-0.1,1.3-0.3s0.7-0.5,1-0.9l0.6,0.4C183.1,5394.1,182.1,5394.6,180.8,5394.6z
				 M180.6,5386.7c-0.7,0-1.3,0.3-1.8,0.8c-0.5,0.5-0.8,1.2-0.9,2.1h5.1v-0.1c0-0.8-0.3-1.5-0.7-2S181.3,5386.7,180.6,5386.7z"/>
			<path class="st2" d="M186.7,5386l0,1.4c0.3-0.5,0.7-0.9,1.2-1.2c0.5-0.3,1-0.4,1.6-0.4c0.9,0,1.6,0.3,2,0.8s0.7,1.3,0.7,2.3v5.5
				h-0.9v-5.6c0-0.8-0.2-1.3-0.5-1.7s-0.8-0.6-1.5-0.6c-0.6,0-1.1,0.2-1.5,0.5s-0.8,0.9-1,1.5v5.8h-0.9v-8.5H186.7z"/>
			<path class="st2" d="M196,5383.8v2.2h1.8v0.8H196v5.6c0,0.5,0.1,0.8,0.3,1s0.5,0.3,0.8,0.3c0.2,0,0.4,0,0.8-0.1l0,0.8
				c-0.2,0.1-0.6,0.1-1,0.1c-0.6,0-1.1-0.2-1.4-0.6s-0.4-0.9-0.4-1.6v-5.6h-1.6v-0.8h1.6v-2.2H196z"/>
		</g>
	</g>
	<g id="Group_1215" transform="translate(0 -23)">
		<path id="Rectangle_478" class="st0" d="M146,5455.5h156c2.8,0,5,2.2,5,5v46c0,2.8-2.2,5-5,5H146l0,0V5455.5L146,5455.5z"/>
		<g class="st1">
			<path class="st2" d="M181.2,5477.7v8.7c0,0.9-0.2,1.6-0.6,2.2s-0.9,1.1-1.6,1.5c-0.7,0.3-1.5,0.5-2.4,0.5c-1.3,0-2.4-0.4-3.2-1.1
				c-0.8-0.7-1.2-1.8-1.3-3.1v-8.8h1.1v8.7c0,1.1,0.3,1.9,0.9,2.5c0.6,0.6,1.5,0.9,2.5,0.9s1.9-0.3,2.5-0.9s0.9-1.4,0.9-2.5v-8.7
				H181.2z"/>
			<path class="st2" d="M191.7,5485.8c0,1.5-0.3,2.7-1,3.5c-0.7,0.9-1.5,1.3-2.6,1.3c-1.3,0-2.3-0.5-3-1.4v4.9h-1V5481h1l0.1,1.3
				c0.7-1,1.7-1.5,3-1.5c1.1,0,2,0.4,2.7,1.3c0.6,0.9,1,2.1,1,3.6V5485.8z M190.6,5485.6c0-1.2-0.2-2.2-0.7-2.9s-1.2-1.1-2.1-1.1
				c-0.6,0-1.2,0.2-1.7,0.5s-0.8,0.8-1.1,1.4v4.6c0.3,0.5,0.6,1,1.1,1.2s1,0.4,1.7,0.4c0.9,0,1.6-0.4,2.1-1.1
				C190.4,5488,190.6,5487,190.6,5485.6z"/>
			<path class="st2" d="M193.6,5485.6c0-1.5,0.3-2.7,1-3.5c0.7-0.9,1.6-1.3,2.7-1.3c1.3,0,2.3,0.5,3,1.5l0.1-1.4h1v9.3
				c0,1.2-0.3,2.2-1,2.9s-1.6,1.1-2.8,1.1c-0.7,0-1.3-0.1-1.9-0.4c-0.6-0.3-1.1-0.7-1.4-1.2l0.6-0.6c0.7,0.9,1.6,1.4,2.7,1.4
				c0.9,0,1.6-0.3,2.1-0.8c0.5-0.5,0.7-1.2,0.8-2.2v-1.2c-0.7,0.9-1.7,1.4-2.9,1.4c-1.1,0-2-0.4-2.7-1.3s-1-2.1-1-3.6V5485.6z
				 M194.6,5485.8c0,1.2,0.2,2.2,0.7,2.9c0.5,0.7,1.2,1.1,2.1,1.1c1.3,0,2.2-0.6,2.8-1.7v-4.4c-0.2-0.6-0.6-1.1-1.1-1.4
				c-0.5-0.3-1-0.5-1.7-0.5c-0.9,0-1.6,0.3-2.1,1C194.9,5483.4,194.6,5484.5,194.6,5485.8z"/>
			<path class="st2" d="M208.4,5481.9c-0.2,0-0.5-0.1-0.7-0.1c-0.7,0-1.2,0.2-1.7,0.5c-0.5,0.4-0.8,0.9-1,1.6v6.5h-1v-9.5h1l0,1.5
				c0.6-1.1,1.5-1.7,2.7-1.7c0.3,0,0.5,0,0.7,0.1L208.4,5481.9z"/>
			<path class="st2" d="M215.7,5490.5c-0.1-0.3-0.2-0.7-0.2-1.3c-0.4,0.5-0.8,0.9-1.4,1.1c-0.6,0.3-1.2,0.4-1.8,0.4
				c-0.9,0-1.7-0.3-2.2-0.8c-0.6-0.5-0.8-1.2-0.8-1.9c0-0.9,0.4-1.7,1.2-2.2c0.8-0.5,1.8-0.8,3.2-0.8h1.9v-1.1
				c0-0.7-0.2-1.2-0.6-1.6c-0.4-0.4-1-0.6-1.8-0.6c-0.7,0-1.3,0.2-1.8,0.6s-0.7,0.8-0.7,1.4l-1.1,0c0-0.8,0.4-1.4,1.1-2
				c0.7-0.6,1.6-0.8,2.6-0.8c1.1,0,1.9,0.3,2.5,0.8c0.6,0.5,0.9,1.3,0.9,2.2v4.5c0,0.9,0.1,1.6,0.3,2.1v0.1H215.7z M212.4,5489.7
				c0.7,0,1.3-0.2,1.9-0.5c0.6-0.3,1-0.8,1.2-1.4v-2.1h-1.9c-1,0-1.9,0.2-2.5,0.6c-0.6,0.4-0.9,0.9-0.9,1.5c0,0.5,0.2,1,0.6,1.3
				C211.2,5489.5,211.7,5489.7,212.4,5489.7z"/>
			<path class="st2" d="M218.9,5485.6c0-1.5,0.3-2.7,1-3.5c0.7-0.9,1.6-1.3,2.7-1.3c1.3,0,2.3,0.5,2.9,1.5v-5.3h1v13.5h-1l0-1.3
				c-0.7,1-1.7,1.4-3,1.4c-1.1,0-2-0.4-2.6-1.3c-0.7-0.9-1-2.1-1-3.6V5485.6z M220,5485.8c0,1.2,0.2,2.2,0.7,2.9
				c0.5,0.7,1.2,1.1,2.1,1.1c1.3,0,2.2-0.6,2.8-1.7v-4.5c-0.5-1.2-1.5-1.9-2.7-1.9c-0.9,0-1.6,0.3-2.1,1
				C220.2,5483.4,220,5484.5,220,5485.8z"/>
			<path class="st2" d="M233,5490.6c-0.8,0-1.5-0.2-2.2-0.6c-0.7-0.4-1.2-1-1.5-1.7c-0.4-0.7-0.5-1.5-0.5-2.4v-0.4
				c0-0.9,0.2-1.7,0.5-2.5c0.4-0.7,0.8-1.3,1.5-1.7s1.3-0.6,2.1-0.6c1.2,0,2.1,0.4,2.7,1.2c0.7,0.8,1,1.9,1,3.2v0.6h-6.8v0.2
				c0,1.1,0.3,2,0.9,2.7c0.6,0.7,1.4,1.1,2.3,1.1c0.6,0,1.1-0.1,1.5-0.3c0.4-0.2,0.8-0.5,1.2-1l0.7,0.5
				C235.6,5490.1,234.5,5490.6,233,5490.6z M232.8,5481.7c-0.8,0-1.5,0.3-2,0.9c-0.5,0.6-0.9,1.4-1,2.3h5.7v-0.1
				c0-0.9-0.3-1.7-0.8-2.2S233.6,5481.7,232.8,5481.7z"/>
			<path class="st2" d="M244.3,5488c0-0.5-0.2-0.9-0.6-1.3c-0.4-0.3-1.1-0.6-1.9-0.7s-1.5-0.4-2-0.6c-0.5-0.2-0.8-0.5-1-0.8
				c-0.2-0.3-0.3-0.7-0.3-1.2c0-0.8,0.3-1.4,0.9-1.9s1.4-0.7,2.4-0.7c1.1,0,1.9,0.3,2.6,0.8c0.6,0.5,1,1.2,1,2.1h-1.1
				c0-0.6-0.2-1-0.7-1.4c-0.5-0.4-1.1-0.6-1.8-0.6c-0.7,0-1.2,0.2-1.7,0.5c-0.4,0.3-0.6,0.7-0.6,1.2c0,0.5,0.2,0.8,0.5,1.1
				c0.3,0.3,1,0.5,1.9,0.7c0.9,0.2,1.6,0.4,2.1,0.7c0.5,0.2,0.8,0.5,1,0.9s0.3,0.8,0.3,1.3c0,0.8-0.3,1.4-1,1.9
				c-0.6,0.5-1.5,0.7-2.5,0.7c-1.1,0-2-0.3-2.7-0.8c-0.7-0.5-1-1.2-1-2h1.1c0,0.6,0.3,1.1,0.8,1.4c0.5,0.3,1.1,0.5,1.9,0.5
				c0.7,0,1.3-0.2,1.8-0.5S244.3,5488.5,244.3,5488z"/>
		</g>
		<path id="Path_3806" class="st16" d="M57.6,5463.3v40.4c0,4.1,2.2,7.9,5.7,10l34.5,20.2c3.5,2.1,7.9,2.1,11.4,0l34.5-20.2
			c3.6-2.1,5.7-5.9,5.7-10v-40.4c0-4.1-2.2-7.9-5.7-10l-34.5-20.2c-3.5-2.1-7.9-2.1-11.4,0l-34.5,20.2
			C59.8,5455.3,57.6,5459.1,57.6,5463.3z"/>
		<g id="Group_1196" transform="translate(-4.497 -36.075)">
			
				<rect id="Rectangle_460" x="101.1" y="5535.7" transform="matrix(0.7071 -0.7071 0.7071 0.7071 -3887.5981 1699.8497)" class="st17" width="14" height="14"/>
			<path id="Path_3886" class="st17" d="M134,5512c5,10.7,1.7,23.4-7.8,30.4"/>
			<path id="Path_3887" class="st18" d="M131.6,5514.5l0-6.5l5.6,3.3L131.6,5514.5z"/>
			<path id="Path_3888" class="st17" d="M82.2,5512c-5,10.7-1.7,23.4,7.8,30.4"/>
			<path id="Path_3889" class="st18" d="M78.9,5511.2l5.6-3.3l0,6.5L78.9,5511.2z"/>
			<path id="Path_3890" class="st17" d="M123,5511.4l3.6,0.1c0.3-1.3,0.5-2.7,0.6-4.1c0-0.1,0-0.1,0-0.2s0-0.1,0-0.2
				c0-1.4-0.1-2.8-0.4-4.1l-3.3-0.1c-0.3-1.1-0.7-2.3-1.2-3.3l2.5-2.4c-0.7-1.2-1.6-2.3-2.5-3.3c0,0-0.1-0.1-0.1-0.1
				c0-0.1-0.1-0.1-0.1-0.1c-1-1-2-1.9-3.2-2.7l-2.3,2.2c-1.2-0.8-2.5-1.3-3.9-1.7l0.1-3.5c-1.3-0.3-2.7-0.5-4.1-0.6
				c-0.1,0-0.1,0-0.2,0s-0.1,0-0.2,0c-1.4,0-2.8,0.1-4.1,0.4l-0.1,3.6c-1.2,0.3-2.3,0.8-3.4,1.4l-2.4-2.5c-1.2,0.7-2.3,1.6-3.3,2.5
				c0,0-0.1,0.1-0.1,0.1s-0.1,0.1-0.2,0.1c-1,1-1.9,2-2.7,3.2l2.5,2.6c-0.6,1.1-1,2.2-1.4,3.4l-3.5-0.1c-0.3,1.3-0.5,2.7-0.5,4.1
				c0,0.1,0,0.1,0,0.2s0,0.1,0,0.2c0,1.4,0.1,2.8,0.4,4.1l3.8,0.1c0.3,1.1,0.8,2.2,1.4,3.2l-2.6,2.5c0.7,1.2,1.6,2.3,2.5,3.3
				c0,0,0.1,0.1,0.1,0.1c0,0,0.1,0.1,0.1,0.1c1,1,2,1.9,3.2,2.7l2.8-2.7c0.8,0.5,1.7,0.8,2.6,1.1l-0.1,3.6c1.3,0.3,2.7,0.5,4.1,0.5
				c0.1,0,0.1,0,0.2,0s0.1,0,0.2,0c1.4,0,2.8-0.1,4.1-0.4l0.1-3.5c1.1-0.3,2.1-0.7,3.2-1.2l2.5,2.6c1.2-0.7,2.3-1.6,3.3-2.5
				c0,0,0.1-0.1,0.1-0.1s0.1-0.1,0.2-0.1c1-1,1.9-2,2.7-3.2l-2.4-2.5C122.1,5513.5,122.6,5512.5,123,5511.4z M107.9,5517.3
				c-6.1-0.1-11-5.2-10.8-11.3c0.1-6.1,5.2-11,11.3-10.8c6.1,0.1,11,5.2,10.8,11.3C119.1,5512.6,114,5517.5,107.9,5517.3
				L107.9,5517.3z M108,5511.2c-2.7-0.1-4.9-2.3-4.8-5.1s2.3-4.9,5.1-4.8c2.7,0.1,4.9,2.3,4.8,5.1
				C113,5509.1,110.7,5511.3,108,5511.2L108,5511.2z"/>
		</g>
		<g id="Group_1195" transform="translate(85.299 -40)">
			<g id="Path_3929" transform="translate(54.066 5511.791)">
				<path class="st18" d="M11.6,22.3c-2.9,0-5.5-1.1-7.6-3.1c-2-2-3.1-4.7-3.1-7.6S2,6,4,4c2-2,4.7-3.1,7.6-3.1S17.1,2,19.1,4
					c2,2,3.1,4.7,3.1,7.6s-1.1,5.5-3.1,7.6C17.1,21.2,14.4,22.3,11.6,22.3z"/>
				<path class="st18" d="M11.6,1.8c-5.4,0-9.8,4.4-9.8,9.8s4.4,9.8,9.8,9.8s9.8-4.4,9.8-9.8S17,1.8,11.6,1.8 M11.6,0
					C18,0,23.1,5.2,23.1,11.6S18,23.1,11.6,23.1S0,18,0,11.6S5.2,0,11.6,0z"/>
			</g>
			<g class="st1">
				<path class="st8" d="M62.4,5523.9l0.5-5h5.3v1.4h-4l-0.3,2.4c0.5-0.3,1-0.4,1.6-0.4c0.9,0,1.7,0.3,2.2,0.9s0.8,1.4,0.8,2.4
					c0,1-0.3,1.8-0.9,2.4c-0.6,0.6-1.4,0.9-2.4,0.9c-0.9,0-1.7-0.3-2.3-0.8c-0.6-0.5-0.9-1.2-1-2h1.6c0.1,0.5,0.2,0.9,0.5,1.1
					c0.3,0.3,0.7,0.4,1.1,0.4c0.5,0,0.9-0.2,1.2-0.5s0.4-0.9,0.4-1.5c0-0.6-0.2-1.1-0.5-1.4c-0.3-0.4-0.7-0.5-1.3-0.5
					c-0.3,0-0.6,0-0.8,0.1c-0.2,0.1-0.4,0.2-0.7,0.5L62.4,5523.9z"/>
			</g>
		</g>
	</g>
	<g id="Group_1218" transform="translate(0 -6.597)">
		<path id="Rectangle_480" class="st0" d="M71,5163.5h156l0,0v56l0,0H71c-2.8,0-5-2.2-5-5v-46C66,5165.7,68.2,5163.5,71,5163.5z"/>
		<g class="st1">
			<path class="st2" d="M130.6,5186.1l0.1,0.2l0.1-0.2l3.6-10h1.1l-4.2,11.4h-0.9l-4.2-11.4h1L130.6,5186.1z"/>
			<path class="st2" d="M136.8,5176.6c0-0.2,0.1-0.3,0.2-0.4c0.1-0.1,0.3-0.2,0.5-0.2c0.2,0,0.4,0.1,0.5,0.2
				c0.1,0.1,0.2,0.3,0.2,0.4s-0.1,0.3-0.2,0.4s-0.3,0.2-0.5,0.2c-0.2,0-0.4-0.1-0.5-0.2C136.9,5176.9,136.8,5176.7,136.8,5176.6z
				 M137.9,5187.5H137v-8.5h0.9V5187.5z"/>
			<path class="st2" d="M145.5,5185.3c0-0.5-0.2-0.8-0.6-1.1c-0.4-0.3-0.9-0.5-1.7-0.7s-1.3-0.3-1.7-0.5s-0.7-0.5-0.9-0.8
				c-0.2-0.3-0.3-0.7-0.3-1.1c0-0.7,0.3-1.2,0.8-1.7c0.6-0.4,1.3-0.7,2.1-0.7c0.9,0,1.7,0.2,2.3,0.7s0.9,1.1,0.9,1.8h-0.9
				c0-0.5-0.2-0.9-0.6-1.2s-0.9-0.5-1.6-0.5c-0.6,0-1.1,0.1-1.5,0.4c-0.4,0.3-0.6,0.6-0.6,1.1c0,0.4,0.2,0.7,0.5,1
				c0.3,0.2,0.9,0.4,1.7,0.6s1.4,0.4,1.8,0.6c0.4,0.2,0.7,0.5,0.9,0.8c0.2,0.3,0.3,0.7,0.3,1.1c0,0.7-0.3,1.3-0.9,1.7
				c-0.6,0.4-1.3,0.6-2.3,0.6c-1,0-1.8-0.2-2.4-0.7c-0.6-0.5-0.9-1.1-0.9-1.8h0.9c0,0.5,0.3,1,0.7,1.3c0.4,0.3,1,0.5,1.7,0.5
				c0.7,0,1.2-0.1,1.6-0.4C145.3,5186.1,145.5,5185.8,145.5,5185.3z"/>
			<path class="st2" d="M154,5186.4c-0.6,0.8-1.5,1.2-2.7,1.2c-0.9,0-1.6-0.3-2.1-0.8s-0.7-1.3-0.7-2.3v-5.5h0.9v5.4
				c0,1.6,0.7,2.4,2,2.4c1.4,0,2.2-0.6,2.6-1.7v-6.1h0.9v8.5H154L154,5186.4z"/>
			<path class="st2" d="M162.7,5187.5c-0.1-0.3-0.2-0.7-0.2-1.2c-0.3,0.4-0.7,0.8-1.3,1s-1,0.3-1.6,0.3c-0.8,0-1.5-0.2-2-0.7
				c-0.5-0.5-0.8-1-0.8-1.7c0-0.8,0.3-1.5,1-2c0.7-0.5,1.6-0.7,2.9-0.7h1.7v-1c0-0.6-0.2-1.1-0.6-1.4c-0.4-0.3-0.9-0.5-1.6-0.5
				c-0.7,0-1.2,0.2-1.6,0.5c-0.4,0.3-0.6,0.7-0.6,1.2l-0.9,0c0-0.7,0.3-1.3,0.9-1.7s1.4-0.7,2.3-0.7c0.9,0,1.7,0.2,2.2,0.7
				c0.5,0.5,0.8,1.1,0.8,2v4c0,0.8,0.1,1.4,0.3,1.8v0.1H162.7z M159.7,5186.8c0.6,0,1.2-0.2,1.7-0.5s0.9-0.7,1.1-1.2v-1.9h-1.7
				c-0.9,0-1.7,0.2-2.2,0.5c-0.5,0.3-0.8,0.8-0.8,1.4c0,0.5,0.2,0.9,0.5,1.2S159.2,5186.8,159.7,5186.8z"/>
			<path class="st2" d="M166.9,5187.5H166v-12h0.9V5187.5z"/>
			<path class="st2" d="M178.7,5187.5c-0.1-0.3-0.2-0.7-0.2-1.2c-0.3,0.4-0.7,0.8-1.3,1s-1,0.3-1.6,0.3c-0.8,0-1.5-0.2-2-0.7
				c-0.5-0.5-0.8-1-0.8-1.7c0-0.8,0.3-1.5,1-2c0.7-0.5,1.6-0.7,2.9-0.7h1.7v-1c0-0.6-0.2-1.1-0.6-1.4c-0.4-0.3-0.9-0.5-1.6-0.5
				c-0.7,0-1.2,0.2-1.6,0.5c-0.4,0.3-0.6,0.7-0.6,1.2l-0.9,0c0-0.7,0.3-1.3,0.9-1.7s1.4-0.7,2.3-0.7c0.9,0,1.7,0.2,2.2,0.7
				c0.5,0.5,0.8,1.1,0.8,2v4c0,0.8,0.1,1.4,0.3,1.8v0.1H178.7z M175.8,5186.8c0.6,0,1.2-0.2,1.7-0.5s0.9-0.7,1.1-1.2v-1.9h-1.7
				c-0.9,0-1.7,0.2-2.2,0.5c-0.5,0.3-0.8,0.8-0.8,1.4c0,0.5,0.2,0.9,0.5,1.2S175.2,5186.8,175.8,5186.8z"/>
			<path class="st2" d="M182.8,5179l0,1.4c0.3-0.5,0.7-0.9,1.2-1.2c0.5-0.3,1-0.4,1.6-0.4c0.9,0,1.6,0.3,2,0.8
				c0.4,0.5,0.7,1.3,0.7,2.3v5.5h-0.9v-5.6c0-0.8-0.2-1.3-0.5-1.7c-0.3-0.4-0.8-0.6-1.5-0.6c-0.6,0-1.1,0.2-1.5,0.5s-0.8,0.9-1,1.5
				v5.8h-0.9v-8.5H182.8z"/>
			<path class="st2" d="M190.4,5183.2c0-1.3,0.3-2.4,0.9-3.1s1.4-1.2,2.4-1.2c1.1,0,2,0.5,2.6,1.4v-4.7h0.9v12h-0.9l0-1.1
				c-0.6,0.9-1.5,1.3-2.6,1.3c-1,0-1.8-0.4-2.4-1.2c-0.6-0.8-0.9-1.8-0.9-3.2V5183.2z M191.3,5183.3c0,1.1,0.2,1.9,0.6,2.6
				c0.4,0.6,1,0.9,1.8,0.9c1.2,0,2-0.5,2.5-1.5v-4c-0.5-1.1-1.3-1.6-2.4-1.6c-0.8,0-1.4,0.3-1.8,0.9S191.3,5182.1,191.3,5183.3z"/>
		</g>
		<g class="st1">
			<path class="st2" d="M87.4,5197.3h-3.7v10.1h-1.5v-10.1h-3.6v-1.2h8.8V5197.3z"/>
			<path class="st2" d="M91.6,5207.6c-1.1,0-2.1-0.4-2.8-1.1s-1.1-1.8-1.1-3v-0.3c0-0.8,0.2-1.6,0.5-2.2s0.8-1.2,1.3-1.5
				c0.6-0.4,1.2-0.6,1.9-0.6c1.1,0,2,0.4,2.6,1.1s0.9,1.8,0.9,3.1v0.6h-5.7c0,0.8,0.3,1.5,0.7,2c0.5,0.5,1.1,0.8,1.8,0.8
				c0.5,0,0.9-0.1,1.3-0.3c0.4-0.2,0.7-0.5,0.9-0.8l0.9,0.7C94.1,5207.1,93,5207.6,91.6,5207.6z M91.4,5200c-0.6,0-1.1,0.2-1.5,0.6
				c-0.4,0.4-0.6,1-0.7,1.8h4.2v-0.1c0-0.7-0.2-1.3-0.6-1.7C92.5,5200.2,92,5200,91.4,5200z"/>
			<path class="st2" d="M100,5206.4c0.5,0,1-0.2,1.4-0.5c0.4-0.3,0.6-0.7,0.6-1.2h1.4c0,0.5-0.2,0.9-0.5,1.4c-0.3,0.4-0.7,0.8-1.2,1
				c-0.5,0.3-1.1,0.4-1.6,0.4c-1.2,0-2.1-0.4-2.7-1.2s-1-1.8-1-3.2v-0.2c0-0.8,0.2-1.6,0.5-2.2c0.3-0.6,0.7-1.1,1.3-1.5
				c0.6-0.4,1.2-0.5,2-0.5c0.9,0,1.7,0.3,2.4,0.9c0.6,0.6,1,1.3,1,2.2H102c0-0.5-0.2-1-0.6-1.3c-0.4-0.4-0.8-0.5-1.4-0.5
				c-0.7,0-1.3,0.3-1.7,0.8c-0.4,0.5-0.6,1.3-0.6,2.3v0.3c0,1,0.2,1.7,0.6,2.2C98.7,5206.2,99.2,5206.4,100,5206.4z"/>
			<path class="st2" d="M106.4,5200c0.6-0.8,1.5-1.2,2.5-1.2c1.8,0,2.7,1,2.7,3v5.6h-1.4v-5.6c0-0.6-0.1-1.1-0.4-1.4
				s-0.7-0.4-1.3-0.4c-0.5,0-0.9,0.1-1.2,0.4c-0.4,0.2-0.6,0.6-0.8,1v6H105v-12h1.4V5200z"/>
			<path class="st2" d="M115.1,5199l0,1.1c0.6-0.8,1.5-1.2,2.5-1.2c1.8,0,2.7,1,2.7,3v5.6H119v-5.6c0-0.6-0.1-1.1-0.4-1.4
				s-0.7-0.4-1.3-0.4c-0.5,0-0.9,0.1-1.2,0.4c-0.4,0.2-0.6,0.6-0.8,1v6h-1.4v-8.5H115.1z"/>
			<path class="st2" d="M122.6,5196.8c0-0.2,0.1-0.4,0.2-0.6c0.1-0.2,0.4-0.2,0.6-0.2s0.5,0.1,0.6,0.2c0.1,0.2,0.2,0.4,0.2,0.6
				s-0.1,0.4-0.2,0.6c-0.1,0.2-0.4,0.2-0.6,0.2s-0.5-0.1-0.6-0.2C122.7,5197.2,122.6,5197,122.6,5196.8z M124.2,5207.5h-1.4v-8.5
				h1.4V5207.5z"/>
			<path class="st2" d="M129.9,5206.4c0.5,0,1-0.2,1.4-0.5c0.4-0.3,0.6-0.7,0.6-1.2h1.4c0,0.5-0.2,0.9-0.5,1.4
				c-0.3,0.4-0.7,0.8-1.2,1c-0.5,0.3-1.1,0.4-1.6,0.4c-1.2,0-2.1-0.4-2.7-1.2s-1-1.8-1-3.2v-0.2c0-0.8,0.2-1.6,0.5-2.2
				c0.3-0.6,0.7-1.1,1.3-1.5c0.6-0.4,1.2-0.5,2-0.5c0.9,0,1.7,0.3,2.4,0.9c0.6,0.6,1,1.3,1,2.2h-1.4c0-0.5-0.2-1-0.6-1.3
				c-0.4-0.4-0.8-0.5-1.4-0.5c-0.7,0-1.3,0.3-1.7,0.8c-0.4,0.5-0.6,1.3-0.6,2.3v0.3c0,1,0.2,1.7,0.6,2.2
				C128.6,5206.2,129.1,5206.4,129.9,5206.4z"/>
			<path class="st2" d="M140.1,5207.5c-0.1-0.2-0.2-0.5-0.2-0.9c-0.7,0.7-1.5,1-2.4,1c-0.8,0-1.5-0.2-2.1-0.7
				c-0.5-0.5-0.8-1.1-0.8-1.8c0-0.9,0.3-1.6,1-2.1c0.7-0.5,1.6-0.7,2.8-0.7h1.4v-0.7c0-0.5-0.2-0.9-0.5-1.2
				c-0.3-0.3-0.7-0.4-1.3-0.4c-0.5,0-0.9,0.1-1.3,0.4c-0.3,0.3-0.5,0.6-0.5,0.9h-1.5c0-0.4,0.1-0.8,0.4-1.2c0.3-0.4,0.7-0.7,1.2-0.9
				c0.5-0.2,1.1-0.3,1.7-0.3c1,0,1.7,0.2,2.3,0.7c0.6,0.5,0.8,1.2,0.9,2v3.9c0,0.8,0.1,1.4,0.3,1.9v0.1H140.1z M137.7,5206.4
				c0.5,0,0.9-0.1,1.3-0.4s0.7-0.5,0.9-0.9v-1.7h-1.1c-1.8,0-2.7,0.5-2.7,1.6c0,0.5,0.2,0.8,0.5,1.1
				C136.8,5206.2,137.2,5206.4,137.7,5206.4z"/>
			<path class="st2" d="M145.1,5207.5h-1.4v-12h1.4V5207.5z"/>
			<path class="st2" d="M151.6,5207.5v-11.4h3.2c1,0,1.9,0.2,2.6,0.7c0.8,0.4,1.3,1.1,1.8,1.9s0.6,1.7,0.6,2.8v0.7
				c0,1.1-0.2,2-0.6,2.8s-1,1.4-1.8,1.9c-0.8,0.4-1.7,0.7-2.7,0.7H151.6z M153.1,5197.3v8.9h1.6c1.2,0,2.1-0.4,2.7-1.1
				c0.6-0.7,1-1.7,1-3.1v-0.7c0-1.3-0.3-2.3-0.9-3c-0.6-0.7-1.5-1.1-2.6-1.1H153.1z"/>
			<path class="st2" d="M165.4,5207.6c-1.1,0-2.1-0.4-2.8-1.1s-1.1-1.8-1.1-3v-0.3c0-0.8,0.2-1.6,0.5-2.2s0.8-1.2,1.3-1.5
				c0.6-0.4,1.2-0.6,1.9-0.6c1.1,0,2,0.4,2.6,1.1s0.9,1.8,0.9,3.1v0.6H163c0,0.8,0.3,1.5,0.7,2c0.5,0.5,1.1,0.8,1.8,0.8
				c0.5,0,0.9-0.1,1.3-0.3c0.4-0.2,0.7-0.5,0.9-0.8l0.9,0.7C167.9,5207.1,166.8,5207.6,165.4,5207.6z M165.2,5200
				c-0.6,0-1.1,0.2-1.5,0.6c-0.4,0.4-0.6,1-0.7,1.8h4.2v-0.1c0-0.7-0.2-1.3-0.6-1.7C166.3,5200.2,165.8,5200,165.2,5200z"/>
			<path class="st2" d="M175.3,5205.2c0-0.4-0.1-0.7-0.4-0.9c-0.3-0.2-0.8-0.4-1.5-0.6c-0.7-0.2-1.3-0.3-1.7-0.6s-0.7-0.5-1-0.8
				c-0.2-0.3-0.3-0.7-0.3-1.1c0-0.7,0.3-1.3,0.9-1.8s1.3-0.7,2.2-0.7c1,0,1.7,0.2,2.3,0.7c0.6,0.5,0.9,1.1,0.9,1.9h-1.5
				c0-0.4-0.2-0.7-0.5-1s-0.8-0.4-1.3-0.4c-0.5,0-0.9,0.1-1.2,0.3s-0.4,0.5-0.4,0.9c0,0.3,0.1,0.6,0.4,0.8c0.3,0.2,0.8,0.3,1.5,0.5
				c0.7,0.2,1.3,0.4,1.8,0.6c0.4,0.2,0.8,0.5,1,0.8c0.2,0.3,0.3,0.7,0.3,1.2c0,0.8-0.3,1.4-0.9,1.8c-0.6,0.5-1.4,0.7-2.4,0.7
				c-0.7,0-1.3-0.1-1.8-0.4c-0.5-0.2-0.9-0.6-1.2-1c-0.3-0.4-0.4-0.9-0.4-1.4h1.4c0,0.5,0.2,0.9,0.6,1.2c0.4,0.3,0.8,0.4,1.4,0.4
				c0.5,0,1-0.1,1.3-0.3C175.1,5205.9,175.3,5205.6,175.3,5205.2z"/>
			<path class="st2" d="M178.6,5196.8c0-0.2,0.1-0.4,0.2-0.6c0.1-0.2,0.4-0.2,0.6-0.2s0.5,0.1,0.6,0.2c0.1,0.2,0.2,0.4,0.2,0.6
				s-0.1,0.4-0.2,0.6c-0.1,0.2-0.4,0.2-0.6,0.2s-0.5-0.1-0.6-0.2C178.7,5197.2,178.6,5197,178.6,5196.8z M180.2,5207.5h-1.4v-8.5
				h1.4V5207.5z"/>
			<path class="st2" d="M182.2,5203.2c0-1.3,0.3-2.4,0.9-3.1s1.4-1.2,2.4-1.2c1,0,1.8,0.4,2.4,1.1l0.1-0.9h1.3v8.2
				c0,1.1-0.3,2-1,2.6c-0.6,0.6-1.5,0.9-2.6,0.9c-0.6,0-1.2-0.1-1.8-0.4c-0.6-0.3-1-0.6-1.3-1.1l0.8-0.9c0.6,0.8,1.4,1.1,2.3,1.1
				c0.7,0,1.3-0.2,1.6-0.6c0.4-0.4,0.6-1,0.6-1.7v-0.7c-0.6,0.7-1.4,1-2.4,1c-1,0-1.8-0.4-2.4-1.2
				C182.5,5205.6,182.2,5204.5,182.2,5203.2z M183.6,5203.3c0,1,0.2,1.7,0.6,2.2s0.9,0.8,1.6,0.8c0.9,0,1.6-0.4,2-1.2v-3.9
				c-0.4-0.8-1.1-1.2-2-1.2c-0.7,0-1.3,0.3-1.6,0.8C183.8,5201.4,183.6,5202.3,183.6,5203.3z"/>
			<path class="st2" d="M192.9,5199l0,1.1c0.6-0.8,1.5-1.2,2.5-1.2c1.8,0,2.7,1,2.7,3v5.6h-1.4v-5.6c0-0.6-0.1-1.1-0.4-1.4
				s-0.7-0.4-1.3-0.4c-0.5,0-0.9,0.1-1.2,0.4s-0.6,0.6-0.8,1v6h-1.4v-8.5H192.9z"/>
		</g>
		<path id="Path_3797" class="st9" d="M223,5171.3v40.4c0,4.1,2.2,7.9,5.7,10l34.6,20.2c3.5,2.1,7.9,2.1,11.4,0l34.6-20.2
			c3.6-2.1,5.7-5.9,5.7-10v-40.4c0-4.1-2.2-7.9-5.7-10l-34.6-20.2c-3.5-2.1-7.9-2.1-11.4,0l-34.6,20.2
			C225.2,5163.3,223,5167.1,223,5171.3z"/>
		<g id="Group_1199" transform="translate(-8 -8)">
			<g id="Group_1202" transform="translate(2.453)">
				<path id="Path_3798" class="st17" d="M284.8,5189.3c0-0.7-0.1-1.5-0.2-2.2h-1.8c-0.2-0.6-0.4-1.2-0.7-1.8l1.3-1.3
					c-0.4-0.6-0.9-1.2-1.4-1.7c0,0-0.1,0-0.1-0.1s0-0.1-0.1-0.1c-0.5-0.5-1.1-1-1.7-1.4l-1.2,1.2c-0.7-0.4-1.4-0.7-2.1-0.9v-1.9
					c-0.7-0.2-1.5-0.2-2.2-0.2c0,0-0.1,0-0.1,0s-0.1,0-0.1,0c-0.7,0-1.5,0.1-2.2,0.2v1.9c-0.6,0.2-1.2,0.5-1.8,0.8l-1.3-1.3
					c-0.6,0.4-1.2,0.9-1.7,1.4c0,0,0,0.1-0.1,0.1s-0.1,0-0.1,0.1c-0.5,0.5-1,1.1-1.4,1.7l1.4,1.4c-0.3,0.6-0.5,1.2-0.7,1.8h-1.9
					c-0.2,0.7-0.2,1.5-0.2,2.2c0,0,0,0.1,0,0.1c0,0,0,0.1,0,0.1c0,0.7,0.1,1.5,0.2,2.2h2c0.2,0.6,0.5,1.2,0.8,1.7l-1.4,1.4
					c0.4,0.6,0.9,1.2,1.4,1.7c0,0,0.1,0,0.1,0.1s0,0.1,0.1,0.1c0.5,0.5,1.1,1,1.7,1.4l1.5-1.5c0.4,0.2,0.9,0.4,1.4,0.6v1.9
					c0.7,0.2,1.5,0.2,2.2,0.2c0,0,0.1,0,0.1,0s0.1,0,0.1,0c0.7,0,1.5-0.1,2.2-0.2v-1.9c0.6-0.2,1.1-0.4,1.7-0.7l1.4,1.4
					c0.6-0.4,1.2-0.9,1.7-1.4c0,0,0-0.1,0.1-0.1s0.1,0,0.1-0.1c0.5-0.5,1-1.1,1.4-1.7l-1.3-1.3c0.3-0.5,0.6-1.1,0.8-1.7h1.9
					c0.2-0.7,0.2-1.5,0.2-2.2c0,0,0-0.1,0-0.1S284.8,5189.4,284.8,5189.3z M274.6,5193.8c-2.5,0-4.6-2.1-4.6-4.6s2.1-4.6,4.6-4.6
					s4.6,2.1,4.6,4.6c0,0,0,0,0,0C279.3,5191.7,277.2,5193.8,274.6,5193.8z"/>
				<g id="Group_1201" transform="translate(-0.558 -0.896)">
					<path id="Path_3799" class="st17" d="M276.4,5171.3L276.4,5171.3l-1,0l-1,0c-10.2,0.7-17.9,9.4-17.2,19.6
						c0.2,3.2,1.3,6.4,3.1,9.1l0,0.1c3.3,4.2,5.5,8.6,6,12.4l0.1,1.2v7.4c0,5,4,9,9,9l0,0c5,0,9-4,9-9v-7.4l0.1-1.2
						c0.5-3.8,2.7-8.2,6-12.4l0-0.1c5.7-8.5,3.4-19.9-5.1-25.6C282.8,5172.6,279.7,5171.5,276.4,5171.3L276.4,5171.3z"/>
					<line id="Line_135" class="st17" x1="263.9" y1="5218.1" x2="286.9" y2="5218.1"/>
					<line id="Line_136" class="st17" x1="266.9" y1="5214" x2="284.5" y2="5214"/>
				</g>
			</g>
		</g>
		<path id="Path_3800" class="st19" d="M223.5,5171.3v40.4c0,4.1,2.2,7.9,5.7,10l34.6,20.2c3.5,2.1,7.9,2.1,11.4,0l34.6-20.2
			c3.6-2.1,5.7-5.9,5.7-10v-40.4c0-4.1-2.2-7.9-5.7-10l-34.6-20.2c-3.5-2.1-7.9-2.1-11.4,0l-34.6,20.2
			C225.7,5163.3,223.5,5167.1,223.5,5171.3z"/>
		<g id="Path_3928" transform="translate(212 5179.895)">
			<path class="st18" d="M11.6,22.2c-5.9,0-10.7-4.8-10.7-10.7S5.7,0.9,11.6,0.9s10.7,4.8,10.7,10.7S17.5,22.2,11.6,22.2z"/>
			<path class="st18" d="M11.6,1.8c-5.4,0-9.8,4.4-9.8,9.8s4.4,9.8,9.8,9.8s9.8-4.4,9.8-9.8S17,1.8,11.6,1.8 M11.6,0
				C18,0,23.1,5.2,23.1,11.6S18,23.1,11.6,23.1S0,18,0,11.6S5.2,0,11.6,0z"/>
		</g>
		<g class="st1">
			<path class="st8" d="M227,5196.2h-6.7v-1.1l3.3-3.6c0.5-0.5,0.8-1,1-1.3c0.2-0.4,0.3-0.7,0.3-1.1c0-0.5-0.1-0.9-0.4-1.1
				s-0.6-0.4-1.1-0.4c-0.5,0-1,0.2-1.3,0.5c-0.3,0.3-0.4,0.8-0.4,1.3h-1.7c0-0.6,0.1-1.2,0.4-1.6c0.3-0.5,0.7-0.9,1.2-1.1
				s1.1-0.4,1.8-0.4c1,0,1.7,0.2,2.3,0.7c0.6,0.5,0.8,1.2,0.8,2c0,0.5-0.1,1-0.4,1.6c-0.3,0.5-0.7,1.2-1.4,1.9l-2.4,2.6h4.6V5196.2z
				"/>
		</g>
	</g>
	<g id="Group_1221">
		<g id="Group_1220">
			<path id="Path_3921" class="st20" d="M311.3,5091.3h25.1c3.9,0,7,2.9,7,6.4v79.2c0,3.5-3.1,6.4-7,6.4h-8.1"/>
			<path id="Path_3922" class="st6" d="M329.4,5179l-7.5,4.3l7.5,4.3V5179z"/>
		</g>
	</g>
	<g id="Group_1222" transform="translate(0 186.163)">
		<g id="Group_1220-2">
			<path id="Path_3921-2" class="st21" d="M311.3,5091.3h25.1c3.9,0,7,2.9,7,6.4v79.2c0,3.5-3.1,6.4-7,6.4h-8.1"/>
			<path id="Path_3922-2" class="st10" d="M329.4,5179l-7.5,4.3l7.5,4.3V5179z"/>
		</g>
	</g>
	<g id="Group_1223" transform="translate(0 374.604)">
		<g id="Group_1220-3" transform="translate(0 -3.271)">
			<path id="Path_3921-3" class="st22" d="M311.3,5091.3h25.1c3.8-0.1,6.9,2.9,7,6.6v82c-0.1,3.8-3.3,6.8-7,6.6h-8.1"/>
			<path id="Path_3922-3" class="st18" d="M329.4,5182.3l-7.5,4.3l7.5,4.3V5182.3z"/>
		</g>
	</g>
	<g id="Group_1204" transform="translate(2 -18)">
		<path id="Path_3921-4" class="st22" d="M61.2,5203.9H36c-4,0.1-7.1,3.3-7,7.3v89.9c-0.1,4,3.1,7.2,7,7.3h8.1"/>
		<path id="Path_3922-4" class="st18" d="M43.1,5304.1l7.5,4.3l-7.5,4.3V5304.1z"/>
	</g>
	<g id="Group_1203" transform="translate(2 -62)">
		<path id="Path_3921-5" class="st23" d="M61.2,5419.5H36c-4,0.1-7.1,3.3-7,7.3v89.9c-0.1,4,3.1,7.2,7,7.3h8.1"/>
		<path id="Path_3922-5" class="st15" d="M43.1,5519.7l7.5,4.3l-7.5,4.3V5519.7z"/>
	</g>
	<g id="Group_1214" transform="translate(0 -38.567)">
		<g id="Group_1212" transform="translate(0 -39.238)">
			<path id="Rectangle_481" class="st0" d="M71,5596.4h182l0,0v78l0,0H71c-2.8,0-5-2.2-5-5v-68C66,5598.6,68.2,5596.4,71,5596.4z"/>
			<g class="st1">
				<path class="st2" d="M110.4,5614l4.2,10l4.2-10h1.3v11.4h-1v-5l0.1-5.1l-4.2,10h-0.7l-4.2-10l0.1,5v5h-1V5614H110.4z"/>
				<path class="st2" d="M128.1,5625.4c-0.1-0.3-0.2-0.7-0.2-1.2c-0.3,0.4-0.7,0.8-1.3,1c-0.5,0.2-1,0.3-1.6,0.3
					c-0.8,0-1.5-0.2-2-0.7c-0.5-0.5-0.8-1-0.8-1.7c0-0.8,0.3-1.5,1-2c0.7-0.5,1.6-0.7,2.9-0.7h1.7v-1c0-0.6-0.2-1.1-0.6-1.4
					c-0.4-0.3-0.9-0.5-1.6-0.5c-0.7,0-1.2,0.2-1.6,0.5c-0.4,0.3-0.6,0.7-0.6,1.2l-0.9,0c0-0.7,0.3-1.3,0.9-1.7s1.4-0.7,2.3-0.7
					c0.9,0,1.7,0.2,2.2,0.7c0.5,0.5,0.8,1.1,0.8,2v4c0,0.8,0.1,1.4,0.3,1.8v0.1H128.1z M125.2,5624.7c0.6,0,1.2-0.2,1.7-0.5
					c0.5-0.3,0.9-0.7,1.1-1.2v-1.9h-1.7c-0.9,0-1.7,0.2-2.2,0.5c-0.5,0.3-0.8,0.8-0.8,1.4c0,0.5,0.2,0.9,0.5,1.2
					S124.6,5624.7,125.2,5624.7z"/>
				<path class="st2" d="M131.3,5614.5c0-0.2,0.1-0.3,0.2-0.4c0.1-0.1,0.3-0.2,0.5-0.2c0.2,0,0.4,0.1,0.5,0.2s0.2,0.3,0.2,0.4
					s-0.1,0.3-0.2,0.4s-0.3,0.2-0.5,0.2c-0.2,0-0.4-0.1-0.5-0.2C131.3,5614.8,131.3,5614.6,131.3,5614.5z M132.4,5625.4h-0.9v-8.5
					h0.9V5625.4z"/>
				<path class="st2" d="M135.8,5616.9l0,1.4c0.3-0.5,0.7-0.9,1.2-1.2c0.5-0.3,1-0.4,1.6-0.4c0.9,0,1.6,0.3,2,0.8
					c0.4,0.5,0.7,1.3,0.7,2.3v5.5h-0.9v-5.6c0-0.8-0.2-1.3-0.5-1.7c-0.3-0.4-0.8-0.6-1.5-0.6c-0.6,0-1.1,0.2-1.5,0.5
					c-0.4,0.4-0.8,0.8-1,1.5v5.8h-0.9v-8.5H135.8z"/>
				<path class="st2" d="M145.2,5614.7v2.2h1.8v0.8h-1.8v5.6c0,0.5,0.1,0.8,0.3,1c0.2,0.2,0.5,0.3,0.8,0.3c0.2,0,0.4,0,0.8-0.1
					l0,0.8c-0.2,0.1-0.6,0.1-1,0.1c-0.6,0-1.1-0.2-1.4-0.6c-0.3-0.4-0.4-0.9-0.4-1.6v-5.6h-1.6v-0.8h1.6v-2.2H145.2z"/>
				<path class="st2" d="M152.1,5625.5c-0.7,0-1.4-0.2-1.9-0.5c-0.6-0.4-1-0.8-1.4-1.5c-0.3-0.6-0.5-1.3-0.5-2.1v-0.3
					c0-0.8,0.2-1.5,0.5-2.2c0.3-0.7,0.8-1.2,1.3-1.5c0.6-0.4,1.2-0.6,1.8-0.6c1,0,1.8,0.3,2.4,1.1c0.6,0.7,0.9,1.7,0.9,2.9v0.5h-6
					v0.2c0,1,0.3,1.8,0.8,2.4c0.5,0.6,1.2,1,2.1,1c0.5,0,0.9-0.1,1.3-0.3c0.4-0.2,0.7-0.5,1-0.9l0.6,0.4
					C154.4,5625,153.4,5625.5,152.1,5625.5z M152,5617.5c-0.7,0-1.3,0.3-1.8,0.8c-0.5,0.5-0.8,1.2-0.9,2.1h5.1v-0.1
					c0-0.8-0.3-1.5-0.7-2C153.2,5617.8,152.7,5617.5,152,5617.5z"/>
				<path class="st2" d="M158,5616.9l0,1.4c0.3-0.5,0.7-0.9,1.2-1.2c0.5-0.3,1-0.4,1.6-0.4c0.9,0,1.6,0.3,2,0.8
					c0.4,0.5,0.7,1.3,0.7,2.3v5.5h-0.9v-5.6c0-0.8-0.2-1.3-0.5-1.7c-0.3-0.4-0.8-0.6-1.5-0.6c-0.6,0-1.1,0.2-1.5,0.5
					c-0.4,0.4-0.8,0.8-1,1.5v5.8h-0.9v-8.5H158z"/>
				<path class="st2" d="M171.2,5625.4c-0.1-0.3-0.2-0.7-0.2-1.2c-0.3,0.4-0.7,0.8-1.3,1c-0.5,0.2-1,0.3-1.6,0.3
					c-0.8,0-1.5-0.2-2-0.7c-0.5-0.5-0.8-1-0.8-1.7c0-0.8,0.3-1.5,1-2c0.7-0.5,1.6-0.7,2.9-0.7h1.7v-1c0-0.6-0.2-1.1-0.6-1.4
					c-0.4-0.3-0.9-0.5-1.6-0.5c-0.7,0-1.2,0.2-1.6,0.5c-0.4,0.3-0.6,0.7-0.6,1.2l-0.9,0c0-0.7,0.3-1.3,0.9-1.7s1.4-0.7,2.3-0.7
					c0.9,0,1.7,0.2,2.2,0.7c0.5,0.5,0.8,1.1,0.8,2v4c0,0.8,0.1,1.4,0.3,1.8v0.1H171.2z M168.3,5624.7c0.6,0,1.2-0.2,1.7-0.5
					c0.5-0.3,0.9-0.7,1.1-1.2v-1.9h-1.7c-0.9,0-1.7,0.2-2.2,0.5c-0.5,0.3-0.8,0.8-0.8,1.4c0,0.5,0.2,0.9,0.5,1.2
					S167.7,5624.7,168.3,5624.7z"/>
				<path class="st2" d="M175.4,5616.9l0,1.4c0.3-0.5,0.7-0.9,1.2-1.2c0.5-0.3,1-0.4,1.6-0.4c0.9,0,1.6,0.3,2,0.8
					c0.4,0.5,0.7,1.3,0.7,2.3v5.5h-0.9v-5.6c0-0.8-0.2-1.3-0.5-1.7c-0.3-0.4-0.8-0.6-1.5-0.6c-0.6,0-1.1,0.2-1.5,0.5
					c-0.4,0.4-0.8,0.8-1,1.5v5.8h-0.9v-8.5H175.4z"/>
				<path class="st2" d="M186.4,5624.7c0.7,0,1.2-0.2,1.6-0.6c0.4-0.4,0.7-0.8,0.7-1.4h0.9c0,0.5-0.2,1-0.5,1.4
					c-0.3,0.4-0.7,0.8-1.2,1c-0.5,0.2-1,0.4-1.6,0.4c-1.1,0-2-0.4-2.6-1.2c-0.6-0.8-1-1.8-1-3.1v-0.3c0-0.8,0.1-1.6,0.4-2.2
					c0.3-0.6,0.7-1.1,1.3-1.5c0.5-0.3,1.2-0.5,1.9-0.5c0.9,0,1.7,0.3,2.3,0.8c0.6,0.6,0.9,1.3,1,2.2h-0.9c0-0.7-0.3-1.2-0.7-1.6
					c-0.4-0.4-1-0.6-1.6-0.6c-0.8,0-1.5,0.3-2,0.9c-0.5,0.6-0.7,1.5-0.7,2.6v0.3c0,1.1,0.2,1.9,0.7,2.5
					C184.9,5624.4,185.5,5624.7,186.4,5624.7z"/>
				<path class="st2" d="M194.8,5625.5c-0.7,0-1.4-0.2-1.9-0.5c-0.6-0.4-1-0.8-1.4-1.5s-0.5-1.3-0.5-2.1v-0.3c0-0.8,0.2-1.5,0.5-2.2
					c0.3-0.7,0.8-1.2,1.3-1.5c0.6-0.4,1.2-0.6,1.8-0.6c1,0,1.8,0.3,2.4,1.1c0.6,0.7,0.9,1.7,0.9,2.9v0.5h-6v0.2c0,1,0.3,1.8,0.8,2.4
					c0.5,0.6,1.2,1,2.1,1c0.5,0,0.9-0.1,1.3-0.3c0.4-0.2,0.7-0.5,1-0.9l0.6,0.4C197.1,5625,196.1,5625.5,194.8,5625.5z
					 M194.6,5617.5c-0.7,0-1.3,0.3-1.8,0.8s-0.8,1.2-0.9,2.1h5.1v-0.1c0-0.8-0.3-1.5-0.7-2C195.9,5617.8,195.3,5617.5,194.6,5617.5z
					"/>
			</g>
			<g class="st1">
				<path class="st2" d="M110,5639.9h-5.3v4.6h6.1v0.8h-7.1V5634h7v0.8h-6.1v4.3h5.3V5639.9z"/>
				<path class="st2" d="M113.5,5636.9l0,1.4c0.3-0.5,0.7-0.9,1.2-1.2c0.5-0.3,1-0.4,1.6-0.4c0.9,0,1.6,0.3,2,0.8
					c0.4,0.5,0.7,1.3,0.7,2.3v5.5h-0.9v-5.6c0-0.8-0.2-1.3-0.5-1.7c-0.3-0.4-0.8-0.6-1.5-0.6c-0.6,0-1.1,0.2-1.5,0.5
					c-0.4,0.4-0.8,0.8-1,1.5v5.8h-0.9v-8.5H113.5z"/>
				<path class="st2" d="M122.4,5638.3c0.3-0.5,0.7-0.9,1.2-1.2c0.5-0.3,1-0.4,1.6-0.4c0.9,0,1.6,0.3,2,0.8c0.4,0.5,0.7,1.3,0.7,2.3
					v5.5h-0.9v-5.6c0-0.8-0.2-1.3-0.5-1.7c-0.3-0.4-0.8-0.6-1.5-0.6c-0.6,0-1.1,0.2-1.5,0.5c-0.4,0.4-0.8,0.8-1,1.5v5.8h-0.9v-12
					h0.9V5638.3z"/>
				<path class="st2" d="M135.6,5645.4c-0.1-0.3-0.2-0.7-0.2-1.2c-0.3,0.4-0.7,0.8-1.3,1c-0.5,0.2-1,0.3-1.6,0.3
					c-0.8,0-1.5-0.2-2-0.7c-0.5-0.5-0.8-1-0.8-1.7c0-0.8,0.3-1.5,1-2c0.7-0.5,1.6-0.7,2.9-0.7h1.7v-1c0-0.6-0.2-1.1-0.6-1.4
					c-0.4-0.3-0.9-0.5-1.6-0.5c-0.7,0-1.2,0.2-1.6,0.5c-0.4,0.3-0.6,0.7-0.6,1.2l-0.9,0c0-0.7,0.3-1.3,0.9-1.7s1.4-0.7,2.3-0.7
					c0.9,0,1.7,0.2,2.2,0.7c0.5,0.5,0.8,1.1,0.8,2v4c0,0.8,0.1,1.4,0.3,1.8v0.1H135.6z M132.6,5644.7c0.6,0,1.2-0.2,1.7-0.5
					c0.5-0.3,0.9-0.7,1.1-1.2v-1.9h-1.7c-0.9,0-1.7,0.2-2.2,0.5c-0.5,0.3-0.8,0.8-0.8,1.4c0,0.5,0.2,0.9,0.5,1.2
					S132.1,5644.7,132.6,5644.7z"/>
				<path class="st2" d="M139.7,5636.9l0,1.4c0.3-0.5,0.7-0.9,1.2-1.2c0.5-0.3,1-0.4,1.6-0.4c0.9,0,1.6,0.3,2,0.8
					c0.4,0.5,0.7,1.3,0.7,2.3v5.5h-0.9v-5.6c0-0.8-0.2-1.3-0.5-1.7c-0.3-0.4-0.8-0.6-1.5-0.6c-0.6,0-1.1,0.2-1.5,0.5
					c-0.4,0.4-0.8,0.8-1,1.5v5.8h-0.9v-8.5H139.7z"/>
				<path class="st2" d="M150.7,5644.7c0.7,0,1.2-0.2,1.6-0.6c0.4-0.4,0.7-0.8,0.7-1.4h0.9c0,0.5-0.2,1-0.5,1.4
					c-0.3,0.4-0.7,0.8-1.2,1c-0.5,0.2-1,0.4-1.6,0.4c-1.1,0-2-0.4-2.6-1.2c-0.6-0.8-1-1.8-1-3.1v-0.3c0-0.8,0.1-1.6,0.4-2.2
					c0.3-0.6,0.7-1.1,1.3-1.5c0.5-0.3,1.2-0.5,1.9-0.5c0.9,0,1.7,0.3,2.3,0.8c0.6,0.6,0.9,1.3,1,2.2h-0.9c0-0.7-0.3-1.2-0.7-1.6
					c-0.4-0.4-1-0.6-1.6-0.6c-0.8,0-1.5,0.3-2,0.9c-0.5,0.6-0.7,1.5-0.7,2.6v0.3c0,1.1,0.2,1.9,0.7,2.5
					C149.2,5644.4,149.9,5644.7,150.7,5644.7z"/>
				<path class="st2" d="M159.1,5645.5c-0.7,0-1.4-0.2-1.9-0.5c-0.6-0.4-1-0.8-1.4-1.5c-0.3-0.6-0.5-1.3-0.5-2.1v-0.3
					c0-0.8,0.2-1.5,0.5-2.2c0.3-0.7,0.8-1.2,1.3-1.5c0.6-0.4,1.2-0.6,1.8-0.6c1,0,1.8,0.3,2.4,1.1c0.6,0.7,0.9,1.7,0.9,2.9v0.5h-6
					v0.2c0,1,0.3,1.8,0.8,2.4c0.5,0.6,1.2,1,2.1,1c0.5,0,0.9-0.1,1.3-0.3c0.4-0.2,0.7-0.5,1-0.9l0.6,0.4
					C161.4,5645,160.4,5645.5,159.1,5645.5z M158.9,5637.5c-0.7,0-1.3,0.3-1.8,0.8c-0.5,0.5-0.8,1.2-0.9,2.1h5.1v-0.1
					c0-0.8-0.3-1.5-0.7-2C160.2,5637.8,159.6,5637.5,158.9,5637.5z"/>
				<path class="st2" d="M164.9,5636.9l0,1.4c0.3-0.5,0.7-0.9,1.2-1.1c0.5-0.3,1-0.4,1.6-0.4c1.3,0,2.2,0.5,2.5,1.6
					c0.3-0.5,0.7-0.9,1.2-1.2c0.5-0.3,1.1-0.4,1.7-0.4c1.8,0,2.7,1,2.8,3v5.6H175v-5.6c0-0.8-0.2-1.3-0.5-1.7
					c-0.3-0.4-0.8-0.5-1.6-0.5c-0.7,0-1.2,0.2-1.7,0.7c-0.5,0.4-0.7,0.9-0.8,1.6v5.6h-0.9v-5.6c0-0.7-0.2-1.3-0.5-1.6
					c-0.3-0.4-0.9-0.5-1.6-0.5c-0.6,0-1.1,0.2-1.5,0.5s-0.7,0.8-0.9,1.5v5.8H164v-8.5H164.9z"/>
				<path class="st2" d="M181.5,5645.5c-0.7,0-1.4-0.2-1.9-0.5c-0.6-0.4-1-0.8-1.4-1.5c-0.3-0.6-0.5-1.3-0.5-2.1v-0.3
					c0-0.8,0.2-1.5,0.5-2.2c0.3-0.7,0.8-1.2,1.3-1.5c0.6-0.4,1.2-0.6,1.8-0.6c1,0,1.8,0.3,2.4,1.1c0.6,0.7,0.9,1.7,0.9,2.9v0.5h-6
					v0.2c0,1,0.3,1.8,0.8,2.4c0.5,0.6,1.2,1,2.1,1c0.5,0,0.9-0.1,1.3-0.3c0.4-0.2,0.7-0.5,1-0.9l0.6,0.4
					C183.8,5645,182.8,5645.5,181.5,5645.5z M181.4,5637.5c-0.7,0-1.3,0.3-1.8,0.8c-0.5,0.5-0.8,1.2-0.9,2.1h5.1v-0.1
					c0-0.8-0.3-1.5-0.7-2C182.6,5637.8,182.1,5637.5,181.4,5637.5z"/>
				<path class="st2" d="M187.4,5636.9l0,1.4c0.3-0.5,0.7-0.9,1.2-1.2s1-0.4,1.6-0.4c0.9,0,1.6,0.3,2,0.8c0.4,0.5,0.7,1.3,0.7,2.3
					v5.5H192v-5.6c0-0.8-0.2-1.3-0.5-1.7c-0.3-0.4-0.8-0.6-1.5-0.6c-0.6,0-1.1,0.2-1.5,0.5c-0.4,0.4-0.8,0.8-1,1.5v5.8h-0.9v-8.5
					H187.4z"/>
				<path class="st2" d="M196.8,5634.7v2.2h1.8v0.8h-1.8v5.6c0,0.5,0.1,0.8,0.3,1c0.2,0.2,0.5,0.3,0.8,0.3c0.2,0,0.4,0,0.8-0.1
					l0,0.8c-0.2,0.1-0.6,0.1-1,0.1c-0.6,0-1.1-0.2-1.4-0.6c-0.3-0.4-0.4-0.9-0.4-1.6v-5.6h-1.6v-0.8h1.6v-2.2H196.8z"/>
			</g>
			<g class="st1">
				<path class="st2" d="M119.6,5665.4c-0.1-0.3-0.2-0.7-0.2-1.2c-0.3,0.4-0.7,0.8-1.3,1c-0.5,0.2-1,0.3-1.6,0.3
					c-0.8,0-1.5-0.2-2-0.7c-0.5-0.5-0.8-1-0.8-1.7c0-0.8,0.3-1.5,1-2c0.7-0.5,1.6-0.7,2.9-0.7h1.7v-1c0-0.6-0.2-1.1-0.6-1.4
					c-0.4-0.3-0.9-0.5-1.6-0.5c-0.7,0-1.2,0.2-1.6,0.5c-0.4,0.3-0.6,0.7-0.6,1.2l-0.9,0c0-0.7,0.3-1.3,0.9-1.7s1.4-0.7,2.3-0.7
					c0.9,0,1.7,0.2,2.2,0.7c0.5,0.5,0.8,1.1,0.8,2v4c0,0.8,0.1,1.4,0.3,1.8v0.1H119.6z M116.7,5664.7c0.6,0,1.2-0.2,1.7-0.5
					c0.5-0.3,0.9-0.7,1.1-1.2v-1.9h-1.7c-0.9,0-1.7,0.2-2.2,0.5c-0.5,0.3-0.8,0.8-0.8,1.4c0,0.5,0.2,0.9,0.5,1.2
					S116.1,5664.7,116.7,5664.7z"/>
				<path class="st2" d="M123.7,5656.9l0,1.4c0.3-0.5,0.7-0.9,1.2-1.2c0.5-0.3,1-0.4,1.6-0.4c0.9,0,1.6,0.3,2,0.8
					c0.4,0.5,0.7,1.3,0.7,2.3v5.5h-0.9v-5.6c0-0.8-0.2-1.3-0.5-1.7c-0.3-0.4-0.8-0.6-1.5-0.6c-0.6,0-1.1,0.2-1.5,0.5
					c-0.4,0.4-0.8,0.8-1,1.5v5.8h-0.9v-8.5H123.7z"/>
				<path class="st2" d="M131.3,5661.1c0-1.3,0.3-2.4,0.9-3.1c0.6-0.8,1.4-1.2,2.4-1.2c1.1,0,2,0.4,2.6,1.4v-4.7h0.9v12h-0.9l0-1.1
					c-0.6,0.9-1.5,1.3-2.6,1.3c-1,0-1.8-0.4-2.4-1.2c-0.6-0.8-0.9-1.8-0.9-3.2V5661.1z M132.2,5661.2c0,1.1,0.2,1.9,0.6,2.6
					c0.4,0.6,1,0.9,1.8,0.9c1.2,0,2-0.5,2.5-1.5v-4c-0.5-1.1-1.3-1.6-2.4-1.6c-0.8,0-1.4,0.3-1.8,0.9S132.2,5660,132.2,5661.2z"/>
				<path class="st2" d="M151.1,5662.6c0-0.6-0.2-1.1-0.7-1.5c-0.4-0.4-1.3-0.7-2.4-1c-1.2-0.3-2-0.7-2.6-1.1
					c-0.8-0.6-1.2-1.3-1.2-2.2c0-0.9,0.4-1.6,1.1-2.1c0.7-0.5,1.6-0.8,2.7-0.8c0.8,0,1.4,0.1,2,0.4c0.6,0.3,1.1,0.7,1.4,1.2
					c0.3,0.5,0.5,1.1,0.5,1.7h-1c0-0.8-0.3-1.4-0.8-1.9s-1.2-0.7-2.1-0.7c-0.9,0-1.6,0.2-2.1,0.6s-0.8,0.9-0.8,1.5
					c0,0.6,0.2,1.1,0.7,1.4c0.5,0.4,1.2,0.7,2.2,1c1,0.3,1.8,0.6,2.3,0.9c0.5,0.3,0.9,0.7,1.2,1.1c0.3,0.4,0.4,0.9,0.4,1.5
					c0,0.9-0.4,1.6-1.1,2.2c-0.7,0.5-1.7,0.8-2.8,0.8c-0.8,0-1.5-0.1-2.2-0.4c-0.7-0.3-1.2-0.7-1.5-1.2c-0.3-0.5-0.5-1.1-0.5-1.8h1
					c0,0.8,0.3,1.4,0.9,1.9c0.6,0.5,1.4,0.7,2.4,0.7c0.9,0,1.6-0.2,2.1-0.6C150.8,5663.7,151.1,5663.2,151.1,5662.6z"/>
				<path class="st2" d="M159.3,5664.3c-0.6,0.8-1.5,1.2-2.7,1.2c-0.9,0-1.6-0.3-2.1-0.8s-0.7-1.3-0.7-2.3v-5.5h0.9v5.4
					c0,1.6,0.7,2.4,2,2.4c1.4,0,2.2-0.6,2.6-1.7v-6.1h0.9v8.5h-0.9L159.3,5664.3z"/>
				<path class="st2" d="M169.5,5661.2c0,1.3-0.3,2.4-0.9,3.1c-0.6,0.8-1.4,1.2-2.3,1.2c-1.2,0-2-0.4-2.7-1.2v4.3h-0.9v-11.7h0.9
					l0,1.2c0.6-0.9,1.5-1.4,2.6-1.4c1,0,1.8,0.4,2.4,1.1c0.6,0.8,0.9,1.8,0.9,3.2V5661.2z M168.5,5661.1c0-1.1-0.2-1.9-0.7-2.6
					c-0.4-0.6-1.1-0.9-1.9-0.9c-0.6,0-1.1,0.1-1.5,0.4c-0.4,0.3-0.7,0.7-0.9,1.2v4.1c0.2,0.5,0.5,0.9,1,1.1c0.4,0.3,0.9,0.4,1.5,0.4
					c0.8,0,1.4-0.3,1.8-0.9C168.3,5663.2,168.5,5662.2,168.5,5661.1z"/>
				<path class="st2" d="M178.4,5661.2c0,1.3-0.3,2.4-0.9,3.1c-0.6,0.8-1.4,1.2-2.3,1.2c-1.2,0-2-0.4-2.7-1.2v4.3h-0.9v-11.7h0.9
					l0,1.2c0.6-0.9,1.5-1.4,2.6-1.4c1,0,1.8,0.4,2.4,1.1c0.6,0.8,0.9,1.8,0.9,3.2V5661.2z M177.4,5661.1c0-1.1-0.2-1.9-0.7-2.6
					c-0.4-0.6-1.1-0.9-1.9-0.9c-0.6,0-1.1,0.1-1.5,0.4c-0.4,0.3-0.7,0.7-0.9,1.2v4.1c0.2,0.5,0.5,0.9,1,1.1c0.4,0.3,0.9,0.4,1.5,0.4
					c0.8,0,1.4-0.3,1.8-0.9C177.2,5663.2,177.4,5662.2,177.4,5661.1z"/>
				<path class="st2" d="M179.9,5661c0-0.8,0.2-1.5,0.5-2.2c0.3-0.7,0.8-1.2,1.3-1.5c0.6-0.4,1.2-0.5,2-0.5c1.1,0,2,0.4,2.7,1.2
					c0.7,0.8,1,1.8,1,3.1v0.2c0,0.8-0.2,1.6-0.5,2.2c-0.3,0.7-0.8,1.2-1.3,1.5c-0.6,0.4-1.2,0.5-2,0.5c-1.1,0-2-0.4-2.7-1.2
					c-0.7-0.8-1.1-1.8-1.1-3.1V5661z M180.8,5661.3c0,1,0.3,1.8,0.8,2.5s1.2,1,2.1,1c0.8,0,1.5-0.3,2.1-1s0.8-1.5,0.8-2.6v-0.2
					c0-0.6-0.1-1.2-0.4-1.8c-0.2-0.5-0.6-1-1-1.2c-0.4-0.3-0.9-0.4-1.5-0.4c-0.8,0-1.5,0.3-2,1c-0.5,0.7-0.8,1.5-0.8,2.6V5661.3z"/>
				<path class="st2" d="M193.3,5657.7c-0.2,0-0.4-0.1-0.6-0.1c-0.6,0-1.1,0.2-1.5,0.5c-0.4,0.3-0.7,0.8-0.9,1.4v5.8h-0.9v-8.5h0.9
					l0,1.3c0.5-1,1.3-1.5,2.4-1.5c0.3,0,0.5,0,0.6,0.1L193.3,5657.7z"/>
				<path class="st2" d="M196.6,5654.7v2.2h1.8v0.8h-1.8v5.6c0,0.5,0.1,0.8,0.3,1c0.2,0.2,0.5,0.3,0.8,0.3c0.2,0,0.4,0,0.8-0.1
					l0,0.8c-0.2,0.1-0.6,0.1-1,0.1c-0.6,0-1.1-0.2-1.4-0.6c-0.3-0.4-0.4-0.9-0.4-1.6v-5.6h-1.6v-0.8h1.6v-2.2H196.6z"/>
			</g>
		</g>
		<g id="Group_1211" transform="translate(43 -44.878)">
			<g id="Group_1209" transform="translate(181 5589)">
				<g id="Group_1208">
					<path id="Path_3763" class="st24" d="M91.9,74V29.8c0-2.7-1.5-5.3-3.8-6.6L49.8,1c-2.4-1.4-5.3-1.4-7.7,0L3.8,23.1
						C1.5,24.5,0,27,0,29.8V74c0,2.7,1.5,5.3,3.8,6.6l38.3,22.1c2.4,1.4,5.3,1.4,7.7,0l38.3-22.1C90.5,79.3,91.9,76.8,91.9,74z"/>
					<g id="Group_1207" transform="translate(15.124 21.46)">
						<path id="Path_3923" class="st24" d="M42.6,3.4V0H15.1v36.4h27.5v-2.6"/>
						<g id="Group_623" transform="translate(0 38.496)">
							<path id="Path_3463" class="st24" d="M44.1,17.1l16.8-13c0.9-0.7,1-2,0.3-2.9c-0.7-0.9-1.9-1-2.8-0.3l-1.4,1.3"/>
							<path id="Path_3461" class="st24" d="M6.6,10.7l5.6-5.8C13,4.1,14,3.6,15,3.3v0C15.7,3.1,16.4,3,17.1,3h19.7
								c1.6,0,2.9,1.3,2.9,2.9s-1.3,2.9-2.9,2.9h-6.9c-0.8,0-1.3,0-1.5,0.1c-0.3,0-0.5,0.2-0.5,0.5c0,0.3,0.2,0.5,0.4,0.5h14.9
								c0.1,0,0.2-0.1,0.3-0.2l1.2-1.3c0,0,0,0,0,0l7.3-7.5c1.1-1.1,2.9-1.2,4-0.1c1.1,1.1,1.2,2.9,0.1,4c0,0,0,0-0.1,0.1L44.9,16.3
								h0c-0.7,0.8-1.8,1.3-2.9,1.3H17.5c-1,0-1.9,0.4-2.6,1.1l-0.5,0.5"/>
							<path id="Path_3720" class="st25" d="M0,14.2l4.8-4.8L16,20.5l-4.8,4.8L0,14.2z"/>
						</g>
						<path id="Path_3464" class="st24" d="M52.5,21.7l2.4,0.1c0.2-0.9,0.4-1.9,0.4-2.8c0,0,0-0.1,0-0.1c0,0,0-0.1,0-0.1
							c0-1-0.1-1.9-0.3-2.8l-2.3,0c-0.2-0.8-0.4-1.6-0.8-2.3l1.7-1.6c-0.5-0.8-1.1-1.6-1.7-2.3c0,0-0.1-0.1-0.1-0.1
							s-0.1-0.1-0.1-0.1c-0.7-0.7-1.4-1.3-2.2-1.8L48,9.1c-0.8-0.5-1.7-0.9-2.6-1.2l0.1-2.4c-0.9-0.2-1.9-0.4-2.8-0.4
							c-0.1,0-0.1,0-0.1,0s-0.1,0-0.1,0c-0.9,0-1.9,0.1-2.8,0.3l-0.1,2.5c-0.8,0.2-1.6,0.6-2.3,1l-1.6-1.7c-0.8,0.5-1.6,1.1-2.3,1.7
							c0,0-0.1,0.1-0.1,0.1S33,9,33,9c-0.7,0.7-1.3,1.4-1.8,2.2l1.7,1.8c-0.4,0.7-0.7,1.5-0.9,2.3l-2.4-0.1
							c-0.2,0.9-0.4,1.9-0.4,2.8c0,0.1,0,0.1,0,0.1s0,0.1,0,0.1c0,1,0.1,1.9,0.3,2.8l2.6,0.1c0.2,0.8,0.6,1.5,1,2.2l-1.8,1.7
							c0.5,0.8,1.1,1.6,1.7,2.3c0,0,0.1,0.1,0.1,0.1s0.1,0.1,0.1,0.1c0.7,0.7,1.4,1.3,2.2,1.8l2-1.9c0.6,0.3,1.2,0.6,1.8,0.8
							l-0.1,2.5c0.9,0.2,1.9,0.4,2.8,0.4c0,0,0.1,0,0.1,0s0.1,0,0.1,0c1,0,1.9-0.1,2.8-0.3l0.1-2.4c0.7-0.2,1.5-0.5,2.2-0.8l1.7,1.8
							c0.8-0.5,1.6-1.1,2.3-1.7c0,0,0.1-0.1,0.1-0.1s0.1-0.1,0.1-0.1c0.7-0.7,1.3-1.4,1.8-2.2l-1.6-1.7
							C51.9,23.2,52.2,22.5,52.5,21.7z M42.1,25.8c-4.2-0.1-7.6-3.6-7.5-7.8c0.1-4.2,3.6-7.6,7.8-7.5c2.3,0,4.4,1.1,5.8,2.9
							c1.1,1.4,1.7,3.1,1.7,4.9C49.8,22.6,46.3,25.9,42.1,25.8L42.1,25.8z M42.2,21.6c-1.9,0-3.4-1.6-3.3-3.5c0-1.9,1.6-3.4,3.5-3.3
							c1.9,0,3.4,1.6,3.3,3.5v0C45.6,20.2,44,21.7,42.2,21.6C42.2,21.6,42.2,21.6,42.2,21.6L42.2,21.6z"/>
					</g>
				</g>
			</g>
		</g>
		<g id="Path_3926" transform="translate(212 5582.203)">
			<path class="st10" d="M11.6,22.2c-5.9,0-10.7-4.8-10.7-10.7S5.7,0.9,11.6,0.9s10.7,4.8,10.7,10.7S17.5,22.2,11.6,22.2z"/>
			<path class="st10" d="M11.6,1.8c-5.4,0-9.8,4.4-9.8,9.8s4.4,9.8,9.8,9.8s9.8-4.4,9.8-9.8S17,1.8,11.6,1.8 M11.6,0
				C18,0,23.1,5.2,23.1,11.6S18,23.1,11.6,23.1S0,18,0,11.6S5.2,0,11.6,0z"/>
		</g>
		<g class="st1">
			<path class="st8" d="M224.5,5588.3v1.4h-0.2c-0.9,0-1.7,0.3-2.2,0.8c-0.6,0.5-0.9,1.2-1,2.1c0.5-0.6,1.2-0.8,2-0.8
				c0.9,0,1.6,0.3,2.1,0.9c0.5,0.6,0.8,1.4,0.8,2.4c0,1-0.3,1.8-0.9,2.5c-0.6,0.6-1.4,0.9-2.3,0.9c-1,0-1.8-0.4-2.4-1.1
				c-0.6-0.7-0.9-1.7-0.9-2.9v-0.6c0-1.7,0.4-3.1,1.3-4.1c0.9-1,2.1-1.5,3.7-1.5H224.5z M222.7,5593c-0.4,0-0.7,0.1-1,0.3
				c-0.3,0.2-0.5,0.5-0.7,0.8v0.5c0,0.7,0.2,1.3,0.5,1.8c0.3,0.4,0.7,0.7,1.2,0.7s0.9-0.2,1.2-0.6s0.4-0.9,0.4-1.5s-0.1-1.1-0.4-1.5
				C223.6,5593.2,223.2,5593,222.7,5593z"/>
		</g>
	</g>
</g>
</svg>
