<?xml version="1.0" encoding="utf-8"?>
<!-- Generator: Adobe Illustrator 27.8.1, SVG Export Plug-In . SVG Version: 6.00 Build 0)  -->
<svg version="1.1" id="Layer_1" xmlns="http://www.w3.org/2000/svg" xmlns:xlink="http://www.w3.org/1999/xlink" x="0px" y="0px"
	 viewBox="0 0 54 54" style="enable-background:new 0 0 54 54;" xml:space="preserve">
<style type="text/css">
	.st0{fill-rule:evenodd;clip-rule:evenodd;fill:#8BC43F;}
	.st1{fill-rule:evenodd;clip-rule:evenodd;fill:#FFFFFF;}
</style>
<g>
	<path class="st0" d="M27,54L27,54c14.9,0,27-12.1,27-27l0,0C54,12.1,41.9,0,27,0l0,0C12.1,0,0,12.1,0,27l0,0C0,41.9,12.1,54,27,54z
		"/>
	<path class="st1" d="M44.2,42.8h-6.8V31.2c0-3.2-1.2-4.9-3.7-4.9c-2.7,0-4.2,1.8-4.2,4.9v11.5h-6.5v-22h6.5v3c0,0,2-3.6,6.6-3.6
		c4.7,0,8,2.8,8,8.7V42.8z M15.3,17.9c-2.2,0-4-1.8-4-4.1s1.8-4.1,4-4.1s4,1.8,4,4.1S17.5,17.9,15.3,17.9z M11.9,42.8h6.8v-22h-6.8
		V42.8z"/>
</g>
</svg>
