<svg fill="#444f5c" version="1.1" id="earth" xmlns="http://www.w3.org/2000/svg" xmlns:xlink="http://www.w3.org/1999/xlink" viewBox="0 0 256 202" enable-background="new 0 0 256 202" xml:space="preserve" stroke="#444f5c"><g id="SVGRepo_bgCarrier" stroke-width="0"></g><g id="SVGRepo_tracerCarrier" stroke-linecap="round" stroke-linejoin="round"></g><g id="SVGRepo_iconCarrier"> <path d="M189.103,2.162c-35.842,0-64.897,29.055-64.897,64.897c0,35.841,29.055,64.897,64.897,64.897S254,102.9,254,67.059 C254,31.217,224.945,2.162,189.103,2.162z M189.457,111.449c-5.808,0-10.551-4.743-10.551-10.551 c0-5.842,4.743-10.551,10.551-10.551c5.808,0,10.551,4.743,10.551,10.551C200.008,106.706,195.265,111.449,189.457,111.449z M214.854,60.998c-1.512,2.234-4.158,4.88-8.317,7.904l-4.158,3.024c-2.199,1.856-3.712,3.712-4.502,6.014 c-0.447,1.512-0.79,3.78-0.79,6.805h-15.431c0.344-6.392,0.722-10.894,1.856-13.197c0.722-2.303,3.368-5.327,7.492-8.317 l3.815-3.368c1.512-1.065,2.577-2.234,3.368-3.368c1.512-1.924,2.302-4.158,2.302-6.805c0-3.024-1.134-5.602-2.646-7.904 c-1.512-2.234-4.537-3.368-9.039-3.368c-4.502,0-7.526,1.478-9.382,4.502c-1.512,2.234-2.646,5.258-2.646,7.904 c0,0.447,0,0.447,0,0.79c-0.447,4.158-3.815,7.492-8.317,7.492c-4.502,0-7.973-3.368-8.317-7.526c0,0,0-1.856,0-2.646 c1.134-9.451,4.949-16.187,11.306-20.345c4.537-2.646,10.207-4.158,16.565-4.158c8.626,0,15.774,1.856,21.445,6.014 c5.602,4.158,8.626,10.173,9.21,18.146C218.669,53.472,217.501,57.63,214.854,60.998z M229.382,148.01l-59.641,13.668 c-0.414,2.899-1.657,6.006-3.52,8.491c-3.52,5.384-8.905,9.319-15.117,10.976c-6.213,1.45-12.839,0.414-18.224-3.313l-51.358-32.72 c-2.485-1.45-2.899-4.349-1.45-6.627c1.45-2.278,4.349-2.899,6.42-1.45l51.565,32.72c6.834,4.142,15.739,2.278,20.087-4.349 c4.349-6.627,2.278-15.739-4.349-20.087l-64.197-40.589c-10.561-6.627-22.78-11.804-34.376-6.006L2,128.958l0.207,58.813 l37.897-26.3c6.006-1.45,12.632-0.207,18.224,3.313l44.731,28.164c10.976,6.834,24.436,8.491,36.033,5.384l96.917-22.158 c7.662-1.657,12.839-9.319,10.976-17.602C244.913,151.117,237.251,146.354,229.382,148.01z"></path> </g></svg>