<?xml version="1.0" encoding="utf-8"?>
<!-- Generator: Adobe Illustrator 16.0.3, SVG Export Plug-In . SVG Version: 6.00 Build 0)  -->
<!DOCTYPE svg PUBLIC "-//W3C//DTD SVG 1.1//EN" "http://www.w3.org/Graphics/SVG/1.1/DTD/svg11.dtd">
<svg version="1.1" id="Layer_1" xmlns="http://www.w3.org/2000/svg" xmlns:xlink="http://www.w3.org/1999/xlink" x="0px" y="0px"
	 width="38.1px" height="27.802px" viewBox="0 0 38.1 27.802" enable-background="new 0 0 38.1 27.802" xml:space="preserve">
<path fill="#8BC43F" d="M29.899,27.802c2.4,0,4.366-0.716,5.9-2.15c1.533-1.433,2.3-3.283,2.3-5.551c0-2.4-0.734-4.283-2.2-5.65
	c-1.467-1.366-3.367-2.05-5.699-2.05c-2.4,0-4.335,0.8-5.801,2.4c-0.199-0.6-0.3-1.233-0.3-1.9c0-0.733,0.101-1.5,0.3-2.3
	c0.266-1.733,1.116-3.433,2.551-5.101c1.433-1.666,3.115-2.9,5.05-3.7L31.1,0c-3.467,1.6-6.084,3.8-7.85,6.6
	c-1.768,2.8-2.65,5.935-2.65,9.401c0,1.6,0.2,3.135,0.601,4.6c0.399,1.467,0.933,2.7,1.6,3.701
	C24.266,26.636,26.633,27.802,29.899,27.802L29.899,27.802z M9.3,27.802c2.4,0,4.365-0.716,5.9-2.15
	c1.532-1.433,2.3-3.283,2.3-5.551c0-2.4-0.734-4.283-2.2-5.65c-1.467-1.366-3.367-2.05-5.7-2.05c-2.399,0-4.334,0.8-5.8,2.4
	c-0.2-0.6-0.3-1.233-0.3-1.9c0-0.733,0.1-1.5,0.3-2.3C4.065,8.868,4.915,7.167,6.35,5.5c1.433-1.666,3.116-2.9,5.05-3.7L10.5,0
	C7.032,1.6,4.415,3.8,2.649,6.6C0.883,9.4,0,12.535,0,16.001c0,1.6,0.2,3.135,0.6,4.6c0.4,1.467,0.933,2.7,1.601,3.701
	C3.665,26.636,6.032,27.802,9.3,27.802L9.3,27.802z"/>
</svg>
