<svg fill="#000000" version="1.1" id="Layer_1" xmlns="http://www.w3.org/2000/svg" xmlns:xlink="http://www.w3.org/1999/xlink" viewBox="0 0 496 496" xml:space="preserve"><g id="SVGRepo_bgCarrier" stroke-width="0"></g><g id="SVGRepo_tracerCarrier" stroke-linecap="round" stroke-linejoin="round"></g><g id="SVGRepo_iconCarrier"> <g> <g> <g> <path d="M488.688,42.624c4.648-4.648,7.312-11.08,7.312-17.656C496,11.2,484.8,0,471.032,0c-6.576,0-13.008,2.664-17.656,7.312 L331.104,129.584C320.04,133.328,312,143.688,312,156v4H184v-4c0-12.312-8.04-22.672-19.104-26.416L42.624,7.312 C37.976,2.664,31.544,0,24.968,0C11.2,0,0,11.2,0,24.968c0,6.576,2.664,13.008,7.312,17.656L124.688,160H0v336h496V160H371.312 L488.688,42.624z M464.688,18.624c1.672-1.672,3.984-2.624,6.344-2.624c4.944,0,8.968,4.024,8.968,8.968 c0,2.36-0.952,4.672-2.624,6.344l-112.36,112.36c-2.728-5.512-7.176-9.96-12.688-12.688L464.688,18.624z M328,156 c0-6.616,5.384-12,12-12c6.616,0,12,5.384,12,12v4h-24V156z M144,156c0-6.616,5.384-12,12-12c6.616,0,12,5.384,12,12v4h-24V156z M18.624,31.312C16.952,29.64,16,27.328,16,24.968C16,20.024,20.024,16,24.968,16c2.36,0,4.672,0.952,6.344,2.624l112.36,112.36 c-5.512,2.728-9.96,7.176-12.688,12.688L18.624,31.312z M480,176v304H16V176H480z"></path> <path d="M464,192H32v240h432V192z M168,208h48v32h-48V208z M48,208h56v32H48V208z M48,304h264v2.112 c-5.408,3.784-10.104,8.48-13.888,13.888H48V304z M48,336h242.36c-1.52,5.072-2.36,10.44-2.36,16s0.84,10.928,2.36,16H48V336z M312,416H48v-32h250.112c3.784,5.408,8.48,10.104,13.888,13.888V416z M360,416h-32v-10.36c5.072,1.52,10.44,2.36,16,2.36 s10.928-0.84,16-2.36V416z M344,392c-22.056,0-40-17.944-40-40c0-22.056,17.944-40,40-40c22.056,0,40,17.944,40,40 C384,374.056,366.056,392,344,392z M448,416h-72v-18.112c5.408-3.784,10.104-8.488,13.888-13.888H448V416z M448,368h-50.36 c1.52-5.072,2.36-10.44,2.36-16s-0.84-10.928-2.36-16H448V368z M448,320h-58.112c-3.784-5.408-8.48-10.104-13.888-13.888V304h72 V320z M448,288h-88v10.36c-5.072-1.52-10.44-2.36-16-2.36s-10.928,0.84-16,2.36V288H48v-32h72v-48h32v48h80v-48h32v48h184V288z M448,240H280v-32h168V240z"></path> <rect x="64" y="448" width="48" height="16"></rect> <rect x="144" y="448" width="48" height="16"></rect> <rect x="224" y="448" width="48" height="16"></rect> <rect x="304" y="448" width="48" height="16"></rect> <rect x="384" y="448" width="48" height="16"></rect> <path d="M344,328c-13.232,0-24,10.768-24,24s10.768,24,24,24s24-10.768,24-24S357.232,328,344,328z M344,360 c-4.416,0-8-3.584-8-8c0-4.416,3.584-8,8-8c4.416,0,8,3.584,8,8C352,356.416,348.416,360,344,360z"></path> </g> </g> </g> </g></svg>